SplineFontDB: 3.0
FontName: aghtex_mathscr
FullName: aghtex_mathscr
FamilyName: aghtex_mathscr
Weight: Roman
Copyright: Copyright (C) 2013 Koichi Murase (AGHTEX_MATHSCR), 1998 Taco Hoekwater, 1991 Ralph Smith (rsfs-1.1 RSFS10). All rights reserved.
Version: 1.2
ItalicAngle: -12
UnderlinePosition: -100
UnderlineWidth: 50
Ascent: 800
Descent: 200
InvalidEm: 0
LayerCount: 2
Layer: 0 1 "+gMyXYgAA" 1
Layer: 1 1 "+Uk2XYgAA" 0
FSType: 8
OS2Version: 0
OS2_WeightWidthSlopeOnly: 0
OS2_UseTypoMetrics: 0
CreationTime: 1370035464
ModificationTime: 1527699830
PfmFamily: 17
TTFWeight: 400
TTFWidth: 5
LineGap: 90
VLineGap: 0
OS2TypoAscent: 0
OS2TypoAOffset: 1
OS2TypoDescent: 0
OS2TypoDOffset: 1
OS2TypoLinegap: 90
OS2WinAscent: 0
OS2WinAOffset: 1
OS2WinDescent: 0
OS2WinDOffset: 1
HheadAscent: 0
HheadAOffset: 1
HheadDescent: 0
HheadDOffset: 1
OS2Vendor: 'PfEd'
MarkAttachClasses: 1
DEI: 91125
TtTable: prep
PUSHW_1
 511
SCANCTRL
PUSHB_1
 1
SCANTYPE
SVTCA[y-axis]
MPPEM
PUSHB_1
 8
LT
IF
PUSHB_2
 1
 1
INSTCTRL
EIF
PUSHB_2
 70
 6
CALL
IF
POP
PUSHB_1
 16
EIF
MPPEM
PUSHB_1
 20
GT
IF
POP
PUSHB_1
 128
EIF
SCVTCI
PUSHB_1
 6
CALL
NOT
IF
SVTCA[y-axis]
PUSHB_1
 2
DUP
RCVT
PUSHB_1
 3
CALL
WCVTP
SVTCA[x-axis]
PUSHB_1
 3
DUP
RCVT
PUSHB_1
 3
CALL
WCVTP
PUSHB_1
 4
DUP
RCVT
PUSHB_3
 3
 154
 2
CALL
PUSHB_2
 3
 70
SROUND
CALL
WCVTP
PUSHB_1
 5
DUP
RCVT
PUSHB_3
 4
 33
 2
CALL
PUSHB_2
 3
 70
SROUND
CALL
WCVTP
EIF
PUSHB_1
 20
CALL
EndTTInstrs
TtTable: fpgm
PUSHB_1
 0
FDEF
PUSHB_1
 0
SZP0
MPPEM
PUSHB_1
 46
LT
IF
PUSHB_1
 74
SROUND
EIF
PUSHB_1
 0
SWAP
MIAP[rnd]
RTG
PUSHB_1
 6
CALL
IF
RTDG
EIF
MPPEM
PUSHB_1
 46
LT
IF
RDTG
EIF
DUP
MDRP[rp0,rnd,grey]
PUSHB_1
 1
SZP0
MDAP[no-rnd]
RTG
ENDF
PUSHB_1
 1
FDEF
DUP
MDRP[rp0,min,white]
PUSHB_1
 12
CALL
ENDF
PUSHB_1
 2
FDEF
MPPEM
GT
IF
RCVT
SWAP
EIF
POP
ENDF
PUSHB_1
 3
FDEF
ROUND[Black]
RTG
DUP
PUSHB_1
 64
LT
IF
POP
PUSHB_1
 64
EIF
ENDF
PUSHB_1
 4
FDEF
PUSHB_1
 6
CALL
IF
POP
SWAP
POP
ROFF
IF
MDRP[rp0,min,rnd,black]
ELSE
MDRP[min,rnd,black]
EIF
ELSE
MPPEM
GT
IF
IF

StartChar: B
Encoding: 66 66 0
Width: 908
Flags: W
HStem: -19 32<86.5352 236.187 526.114 610.458> 75 83<64.3452 143.112> 194 32<604.246 692.874> 264 32<210.973 326.337> 292 32<642 700.546> 348 32<655.891 712.483> 673 32<893.406 918.904> 681 32<526.038 766.741>
VStem: 29 31<35.5223 84.4172> 158 36<311.354 423.12> 479 32<28.1758 110.995> 499 35<497.969 574.938> 793 57<194.279 320.669> 871 62<485.683 617.021>
LayerCount: 2
Fore
SplineSet
532 562 m 0,0,1
 534 544 534 544 534 535 c 0,2,3
 534 456 534 456 477 377 c 0,4,5
 443 330 443 330 380 297 c 128,-1,6
 317 264 317 264 260 264 c 0,7,8
 218 264 218 264 192 283 c 0,9,10
 165 302 165 302 160 337 c 0,11,12
 158 349 158 349 158 357 c 0,13,14
 158 419 158 419 214 498 c 0,15,16
 278 587 278 587 403 650 c 0,17,18
 527 713 527 713 642 713 c 0,19,20
 775 713 775 713 849 672 c 1,21,-1
 898 703 l 2,22,23
 903 705 903 705 905 705 c 0,24,25
 916 705 916 705 919 696 c 2,26,-1
 919 695 l 1,27,-1
 921 685 l 1,28,-1
 921 684 l 2,29,30
 921 678 921 678 916 673 c 2,31,-1
 915 673 l 1,32,33
 897 661 897 661 883 649 c 1,34,35
 888 644 888 644 895 638 c 0,36,37
 933 600 933 600 933 548 c 0,38,39
 933 500 933 500 896 447 c 128,-1,40
 859 394 859 394 798 352 c 1,41,42
 826 333 826 333 839 306 c 0,43,44
 850 283 850 283 850 256 c 0,45,46
 850 199 850 199 803 132 c 0,47,48
 758 70 758 70 692 30 c 0,49,50
 622 -13 622 -13 563 -13 c 0,51,52
 496 -13 496 -13 481 37 c 0,53,54
 479 44 479 44 479 58 c 0,55,56
 479 100 479 100 513 148 c 0,57,58
 536 181 536 181 587 204 c 0,59,60
 636 226 636 226 686 226 c 0,61,62
 699 226 699 226 699 213 c 0,63,64
 699 209 699 209 698 206 c 2,65,-1
 693 199 l 1,66,-1
 693 198 l 2,67,68
 689 194 689 194 682 194 c 0,69,70
 641 194 641 194 599 176 c 0,71,72
 557 157 557 157 540 132 c 0,73,74
 511 91 511 91 511 61 c 0,75,76
 511 56 511 56 513 48 c 0,77,78
 520 19 520 19 567 19 c 0,79,80
 606 19 606 19 656 55 c 0,81,82
 697 86 697 86 743 148 c 0,83,84
 793 218 793 218 793 270 c 0,85,86
 793 279 793 279 789 293 c 0,87,88
 781 317 781 317 761 328 c 1,89,90
 693 292 693 292 640 292 c 0,91,92
 613 292 613 292 596 297 c 1,93,94
 581 276 581 276 528 202 c 0,95,96
 464 112 464 112 361 47 c 0,97,98
 257 -19 257 -19 171 -19 c 0,99,100
 111 -19 111 -19 71 1 c 0,101,102
 29 22 29 22 29 62 c 0,103,104
 29 92 29 92 54 127 c 0,105,106
 75 158 75 158 115 158 c 0,107,108
 153 158 153 158 153 119 c 0,109,110
 153 102 153 102 133 88 c 0,111,112
 114 75 114 75 92 75 c 0,113,114
 75 75 75 75 64 85 c 1,115,116
 60 73 60 73 60 66 c 0,117,118
 60 40 60 40 90 27 c 0,119,120
 122 13 122 13 175 13 c 0,121,122
 232 13 232 13 302 72 c 0,123,124
 373 132 373 132 434 218 c 0,125,126
 507 321 507 321 548 375.5 c 128,-1,127
 589 430 589 430 666 512 c 0,128,129
 739 591 739 591 813 647 c 1,130,131
 751 681 751 681 638 681 c 0,132,133
 533 681 533 681 419 624 c 0,134,135
 306 568 306 568 247 482 c 0,136,137
 194 407 194 407 194 356 c 0,138,139
 194 349 194 349 195 345 c 0,140,141
 201 296 201 296 264 296 c 0,142,143
 303 296 303 296 347 323 c 0,144,145
 385 347 385 347 417 393 c 0,146,147
 444 432 444 432 458 454 c 128,-1,148
 472 476 472 476 486 505 c 0,149,150
 499 532 499 532 499 551 c 2,151,-1
 499 559 l 2,152,153
 499 567 499 567 507 571 c 0,154,155
 511 573 511 573 516 575 c 2,156,-1
 517 575 l 1,157,-1
 518 575 l 2,158,159
 532 575 532 575 532 562 c 0,0,1
684 380 m 0,160,161
 722 380 722 380 752 372 c 1,162,163
 795 406 795 406 835 463 c 0,164,165
 871 515 871 515 871 558 c 0,166,167
 871 593 871 593 849 618 c 1,168,169
 775 541 775 541 655 378 c 1,170,171
 670 380 670 380 684 380 c 0,160,161
645 328 m 0,172,173
 644 326 644 326 642 324 c 1,174,175
 643 324 643 324 644 324 c 0,176,177
 674 324 674 324 713 346 c 1,178,179
 697 348 697 348 680 348 c 0,180,181
 666 348 666 348 656 343 c 0,182,183
 652 338 652 338 645 328 c 0,172,173
EndSplineSet
Validated: 19457
EndChar

StartChar: C
Encoding: 67 67 1
Width: 666
Flags: W
HStem: -24 32<266.412 381.822> 264 32<434.424 522.048> 345 32<145.154 255.844> 649 32<215.357 304.874> 687 32<681.035 774.577>
VStem: 21 61<418.445 536.876> 168 72<32.3809 174.25> 299 38<77 169.833> 529 55<157.129 258.158> 781 36<596.295 680.557>
LayerCount: 2
Fore
SplineSet
350 74 m 1,0,-1
 338 66 l 2,1,2
 335 64 335 64 332 65 c 2,3,-1
 328 66 l 1,4,5
 299 84 299 84 299 117 c 128,-1,6
 299 150 299 150 327 191 c 0,7,8
 356 233 356 233 402 265 c 0,9,10
 447 296 447 296 483 296 c 0,11,12
 565 296 565 296 581 234 c 0,13,14
 584 222 584 222 584 211 c 0,15,16
 584 160 584 160 540 97 c 0,17,18
 507 50 507 50 439 12 c 0,19,20
 374 -24 374 -24 317 -24 c 0,21,22
 252 -24 252 -24 213 7 c 0,23,24
 177 35 177 35 169 93 c 0,25,26
 168 100 168 100 168 116 c 0,27,28
 168 217 168 217 256 345 c 1,29,-1
 245 345 l 2,30,31
 176 345 176 345 126.5 361 c 128,-1,32
 77 377 77 377 48 409 c 0,33,34
 21 439 21 439 21 480 c 0,35,36
 21 523 21 523 53 568 c 0,37,38
 88 617 88 617 158 649 c 0,39,40
 229 681 229 681 298 681 c 0,41,42
 311 681 311 681 311 668 c 0,43,44
 311 666 311 666 305 655 c 2,45,-1
 305 654 l 1,46,-1
 305 653 l 2,47,48
 305 649 305 649 294 649 c 0,49,50
 239 649 239 649 190 622 c 0,51,52
 143 596 143 596 113 552 c 0,53,54
 82 506 82 506 82 469 c 0,55,56
 82 444 82 444 94 429 c 0,57,58
 133 377 133 377 249 377 c 0,59,60
 268 377 268 377 279 378 c 1,61,62
 379 514 379 514 508 612 c 0,63,64
 647 719 647 719 740 719 c 0,65,66
 802 719 802 719 816 665 c 0,67,68
 817 661 817 661 817 651 c 0,69,70
 817 609 817 609 778 553 c 0,71,72
 717 466 717 466 561 405 c 0,73,74
 467 368 467 368 367 353 c 1,75,76
 240 175 240 175 240 97 c 0,77,78
 240 88 240 88 240 86 c 0,79,80
 240 50 240 50 260 29 c 128,-1,81
 280 8 280 8 321 8 c 0,82,83
 361 8 361 8 405 37 c 0,84,85
 444 62 444 62 480 113 c 0,86,87
 529 182 529 182 529 223 c 2,88,-1
 529 227 l 1,89,90
 527 264 527 264 479 264 c 0,91,92
 456 264 456 264 422 240 c 0,93,94
 388 215 388 215 360 176 c 0,95,96
 337 143 337 143 337 118 c 0,97,98
 337 101 337 101 348 92 c 0,99,-1
 349 91 l 2,100,101
 353 87 353 87 353 81 c 0,102,103
 353 78 353 78 350 74 c 1,0,-1
736 687 m 0,104,105
 676 687 676 687 565 588 c 0,106,107
 485 516 485 516 392 390 c 1,108,109
 466 402 466 402 546 433 c 0,110,111
 690 488 690 488 746 568 c 0,112,113
 781 618 781 618 781 649 c 2,114,-1
 780 657 l 2,115,116
 776 687 776 687 736 687 c 0,104,105
EndSplineSet
Validated: 19457
EndChar

StartChar: D
Encoding: 68 68 2
Width: 774
Flags: W
HStem: -36 32<325.139 468.74> -22 33<134.882 235.54> 20 33<134.92 235.067> 267 32<205.65 313.73> 544 32<803.593 847.874> 681 32<459.372 647.826>
VStem: 131 57<310.918 441.303> 492 34<489.305 572.903> 766 41<361.266 505.496>
LayerCount: 2
Fore
SplineSet
854 563 m 0,0,1
 854 561 854 561 848 550 c 2,2,-1
 848 549 l 1,3,-1
 848 548 l 2,4,5
 844 544 844 544 837 544 c 0,6,7
 822 544 822 544 803 533 c 1,8,9
 807 507 807 507 807 484 c 0,10,11
 807 370 807 370 728 225 c 0,12,13
 685 144 685 144 618 76 c 0,14,15
 550 8 550 8 469 -21 c 0,16,17
 428 -36 428 -36 392 -36 c 128,-1,18
 356 -36 356 -36 287 -6 c 1,19,20
 249 -22 249 -22 215 -22 c 2,21,-1
 183 -22 l 2,22,23
 58 -22 58 -22 58 10 c 0,24,25
 58 17 58 17 63 23 c 0,26,27
 85 53 85 53 185 53 c 2,28,-1
 193 53 l 2,29,30
 229 53 229 53 274 35 c 1,31,32
 302 56 302 56 340 99 c 0,33,34
 380 145 380 145 407.5 182.5 c 128,-1,35
 435 220 435 220 481 285 c 0,36,37
 631 496 631 496 756 555 c 1,38,39
 716 681 716 681 546 681 c 0,40,41
 474 681 474 681 388.5 633.5 c 128,-1,42
 303 586 303 586 254 517 c 0,43,44
 188 423 188 423 188 361 c 128,-1,45
 188 299 188 299 257 299 c 0,46,47
 297 299 297 299 351 337 c 0,48,49
 405 376 405 376 441 428 c 0,50,51
 492 502 492 502 492 558 c 0,52,53
 492 568 492 568 501 571 c 0,54,55
 508 573 508 573 510 573 c 2,56,-1
 512 573 l 2,57,58
 522 573 522 573 525 562 c 0,59,60
 526 557 526 557 526 547 c 0,61,62
 526 487 526 487 473 412 c 0,63,64
 432 354 432 354 369 311 c 0,65,66
 305 267 305 267 253 267 c 0,67,68
 193 267 193 267 162 295.5 c 128,-1,69
 131 324 131 324 131 372 c 0,70,71
 131 446 131 446 194 533 c 0,72,73
 250 613 250 613 353.5 663 c 128,-1,74
 457 713 457 713 550 713 c 0,75,76
 745 713 745 713 794 569 c 1,77,78
 819 576 819 576 841 576 c 0,79,80
 854 576 854 576 854 563 c 0,0,1
694 237 m 0,81,82
 766 376 766 376 766 483 c 0,83,84
 766 491 766 491 765 506 c 1,85,86
 702 449 702 449 575 269 c 0,87,88
 440 78 440 78 324 12 c 1,89,90
 363 -4 363 -4 395 -4 c 128,-1,91
 427 -4 427 -4 464 10 c 0,92,93
 536 38 536 38 595 99 c 0,94,95
 655 162 655 162 694 237 c 0,81,82
219 11 m 0,96,97
 227 11 227 11 236 14 c 1,98,99
 214 20 214 20 190 20 c 0,100,101
 152 20 152 20 134 14 c 1,102,103
 162 11 162 11 219 11 c 0,96,97
EndSplineSet
Validated: 19457
EndChar

StartChar: E
Encoding: 69 69 3
Width: 562
Flags: W
HStem: -13 32<158.319 316.441> 250 32<326.345 442.172> 341 32<363.65 425.236> 383 33<363 426.351> 439 32<525.389 603.541> 603 32<580.388 636.483> 671 42<488.225 650.07>
VStem: 40 69<58.0714 191.602> 267 67<412.257 498.065> 462 60<140.144 235.275> 487 36<474.173 543.767> 676 40<543.698 645.408>
LayerCount: 2
Fore
SplineSet
625 463 m 0,0,1
 590 439 590 439 559 439 c 0,2,3
 503 439 503 439 490 479 c 0,4,5
 487 489 487 489 487 499 c 0,6,7
 487 530 487 530 514 568 c 0,8,9
 533 595 533 595 564 615 c 0,10,-1
 565 615 l 2,11,12
 599 635 599 635 623 635 c 0,13,14
 637 635 637 635 637 622 c 0,15,16
 637 618 637 618 633 612 c 2,17,-1
 630 608 l 2,18,19
 627 603 627 603 619 603 c 0,20,21
 603 603 603 603 583 589 c 0,22,23
 564 578 564 578 546 552 c 0,24,25
 523 518 523 518 523 498 c 0,26,27
 523 471 523 471 563 471 c 0,28,29
 582 471 582 471 605 488 c 0,30,31
 631 507 631 507 649 533 c 0,32,33
 676 570 676 570 676 602 c 0,34,35
 676 620 676 620 668 632 c 0,36,37
 644 671 644 671 557 671 c 0,38,39
 516 671 516 671 469 639 c 0,40,41
 430 611 430 611 389 552 c 0,42,43
 334 473 334 473 334 430 c 0,44,45
 334 424 334 424 335 420 c 0,46,47
 336 415 336 415 337 412 c 1,48,49
 365 416 365 416 385 416 c 0,50,51
 423 416 423 416 447 404 c 0,52,53
 468 394 468 394 468 380 c 0,54,55
 468 371 468 371 462 363 c 0,56,57
 454 351 454 351 438 346 c 128,-1,58
 422 341 422 341 407 341 c 0,59,60
 345 341 345 341 306 368 c 1,61,62
 281 358 281 358 263 348 c 0,63,64
 208 315 208 315 170 258 c 0,65,66
 109 170 109 170 109 112 c 0,67,68
 109 97 109 97 113 86 c 0,69,70
 135 19 135 19 243 19 c 0,71,72
 295 19 295 19 349 51 c 0,73,74
 400 81 400 81 436 134 c 0,75,76
 462 169 462 169 462 198 c 0,77,78
 462 209 462 209 458 218 c 0,79,80
 440 250 440 250 370 250 c 0,81,82
 333 250 333 250 296 205 c 0,83,84
 258 159 258 159 250 106 c 0,85,86
 246 97 246 97 242 95 c 2,87,-1
 235 92 l 1,88,-1
 234 92 l 1,89,-1
 233 92 l 1,90,-1
 229 92 l 2,91,92
 222 92 222 92 218 100 c 0,93,94
 217 102 217 102 217 106 c 0,95,-1
 217 107 l 1,96,97
 225 169 225 169 274 225 c 0,98,99
 323 282 323 282 374 282 c 0,100,101
 469 282 469 282 506 235 c 0,102,103
 522 216 522 216 522 187 c 0,104,105
 522 153 522 153 497 118 c 0,106,107
 456 62 456 62 383 26 c 0,108,109
 307 -13 307 -13 239 -13 c 0,110,111
 168 -13 168 -13 121.5 8 c 128,-1,112
 75 29 75 29 54 72 c 0,113,114
 40 99 40 99 40 133 c 0,115,116
 40 202 40 202 92 274 c 0,117,118
 135 333 135 333 220 375 c 0,119,120
 254 391 254 391 280 398 c 1,121,122
 277 403 277 403 274 409 c 0,123,124
 267 427 267 427 267 450 c 0,125,126
 267 506 267 506 311 568 c 0,127,128
 357 630 357 630 429 670 c 0,129,130
 505 713 505 713 568 713 c 0,131,132
 670 713 670 713 703 656 c 0,133,134
 716 636 716 636 716 609 c 0,135,136
 716 566 716 566 682 517 c 0,137,138
 657 482 657 482 625 463 c 0,0,1
381 383 m 0,139,140
 372 383 372 383 363 382 c 1,141,142
 381 373 381 373 410 373 c 0,143,144
 419 373 419 373 424 374 c 2,145,-1
 427 377 l 1,146,147
 414 383 414 383 381 383 c 0,139,140
EndSplineSet
Validated: 19457
EndChar

StartChar: F
Encoding: 70 70 4
Width: 895
Flags: W
HStem: -27 32<101.383 275.031> 75 83<72.3762 152.112> 345 32<300.329 430.98> 379 32<791.485 817.895> 590 66<868.312 975.285> 667 66<539.095 741.562>
VStem: 36 32<31.8431 85.4016> 253 36<387.16 482.988> 559 60<486.853 594.76>
LayerCount: 2
Fore
SplineSet
816 411 m 0,0,1
 846 411 846 411 853 388 c 0,2,3
 854 384 854 384 854 378 c 0,4,5
 854 361 854 361 840 342 c 0,6,7
 817 309 817 309 736 286 c 1,8,9
 726 269 726 269 726 253 c 0,10,11
 726 247 726 247 727 245 c 2,12,-1
 727 244 l 1,13,-1
 727 243 l 1,14,-1
 727 241 l 2,15,16
 727 233 727 233 720 229 c 2,17,-1
 719 229 l 1,18,-1
 719 228 l 1,19,-1
 666 207 l 2,20,21
 662 205 662 205 659 205 c 2,22,-1
 653 206 l 2,23,24
 650 207 650 207 646 214 c 0,25,26
 645 216 645 216 645 218.5 c 128,-1,27
 645 221 645 221 647 224 c 0,28,29
 654 246 654 246 667 271 c 1,30,31
 635 266 635 266 611 265 c 1,32,33
 596 232 596 232 575 202 c 0,34,35
 509 109 509 109 403 41 c 0,36,37
 349 7 349 7 300 -10 c 128,-1,38
 251 -27 251 -27 207 -27 c 0,39,40
 136 -27 136 -27 87 -7 c 0,41,42
 36 14 36 14 36 59 c 0,43,44
 36 90 36 90 63 127 c 0,45,46
 84 158 84 158 124 158 c 0,47,48
 162 158 162 158 162 119 c 0,49,50
 162 102 162 102 142 88 c 0,51,52
 123 75 123 75 101 75 c 0,53,54
 84 75 84 75 72 86 c 1,55,56
 68 74 68 74 68 64 c 0,57,58
 68 5 68 5 211 5 c 0,59,60
 271 5 271 5 344 66 c 0,61,62
 418 128 418 128 482 218 c 0,63,64
 485 223 485 223 510 261 c 1,65,66
 455 256 455 256 409 241 c 0,67,68
 337 219 337 219 316 188 c 0,69,70
 313 183 313 183 305 183 c 2,71,-1
 294 183 l 2,72,73
 290 183 290 183 287 185 c 2,74,-1
 286 185 l 1,75,-1
 285 185 l 2,76,77
 281 189 281 189 281 196 c 0,78,79
 281 200 281 200 283 203 c 2,80,-1
 283 204 l 1,81,82
 311 242 311 242 396 269 c 0,83,84
 459 290 459 290 531 295 c 1,85,86
 539 310 539 310 559 344 c 0,87,88
 581 382 581 382 598 409.5 c 128,-1,89
 615 437 615 437 633 463 c 0,90,91
 693 548 693 548 794 610 c 0,92,93
 799 612 799 612 801 612 c 0,94,95
 812 612 812 612 814 602 c 2,96,-1
 816 592 l 1,97,-1
 816 591 l 2,98,99
 816 584 816 584 812 581 c 0,100,101
 745 519 745 519 693 447 c 0,102,103
 680 428 680 428 669 406.5 c 128,-1,104
 658 385 658 385 652 370 c 128,-1,105
 646 355 646 355 636 329 c 0,106,107
 629 311 629 311 624 298 c 1,108,109
 655 300 655 300 689 307 c 1,110,-1
 700 323 l 2,111,112
 727 361 727 361 758 384 c 0,113,114
 791 411 791 411 816 411 c 0,0,1
989 653 m 0,115,116
 995 649 995 649 995 643 c 0,117,118
 995 639 995 639 992 635 c 0,119,120
 987 628 987 628 978 615.5 c 128,-1,121
 969 603 969 603 964 596 c 0,122,123
 958 590 958 590 954 590 c 0,124,125
 886 590 886 590 788 629 c 0,126,127
 691 667 691 667 628 667 c 0,128,129
 539 667 539 667 461 628 c 0,130,131
 374 585 374 585 327 517 c 0,132,133
 289 462 289 462 289 425 c 0,134,135
 289 417 289 417 290 413 c 0,136,137
 297 377 297 377 349 377 c 0,138,139
 399 377 399 377 451 401 c 0,140,141
 495 423 495 423 522 463 c 0,142,143
 559 515 559 515 559 557 c 0,144,145
 559 574 559 574 553 587 c 0,146,147
 551 590 551 590 551 593 c 0,148,149
 551 599 551 599 557 604 c 0,150,-1
 563 608 l 1,151,-1
 564 608 l 2,152,153
 569 611 569 611 571 611 c 2,154,-1
 572 611 l 1,155,-1
 576 610 l 1,156,-1
 577 610 l 1,157,158
 619 590 619 590 619 543 c 0,159,160
 619 500 619 500 582 447 c 0,161,162
 552 405 552 405 482 374 c 0,163,164
 413 345 413 345 345 345 c 0,165,166
 270 345 270 345 255 404 c 0,167,168
 253 412 253 412 253 426 c 0,169,170
 253 473 253 473 294 533 c 0,171,172
 352 615 352 615 459 674 c 0,173,174
 564 733 564 733 656 733 c 0,175,176
 723 733 723 733 822 694 c 0,177,178
 919 656 919 656 981 656 c 0,179,180
 986 656 986 656 989 653 c 0,115,116
808 358 m 0,181,182
 817 370 817 370 818 376 c 0,183,184
 816 379 816 379 812 379 c 0,185,186
 806 379 806 379 788 360 c 0,187,188
 782 354 782 354 761 326 c 1,189,190
 795 340 795 340 808 358 c 0,181,182
EndSplineSet
Validated: 19457
EndChar

StartChar: G
Encoding: 71 71 5
Width: 610
Flags: W
HStem: -27 32<130.276 300.816> 75 83<100.345 179.112> 194 32<323.644 415.275> 275 32<112.928 242.127> 649 32<236.772 301.874> 689 33<613.028 685.172>
VStem: 6 58<342.13 470.52> 63 32<32.2334 84.4038> 686 56<614.156 687.156>
LayerCount: 2
Fore
SplineSet
526 336 m 1,0,1
 578 400 578 400 640 436 c 0,2,3
 641 437 641 437 645 437 c 0,4,5
 655 437 655 437 658 428 c 2,6,-1
 658 426 l 1,7,-1
 659 425 l 1,8,-1
 660 417 l 1,9,-1
 660 416 l 2,10,11
 660 408 660 408 655 405 c 0,12,13
 630 390 630 390 614 369 c 0,14,15
 597 347 597 347 582 317 c 0,16,17
 566 286 566 286 556 272 c 0,18,19
 533 239 533 239 518 177 c 0,20,21
 503 113 503 113 478 76 c 0,22,23
 442 25 442 25 375 -1 c 0,24,25
 309 -27 309 -27 243 -27 c 0,26,27
 168 -27 168 -27 117 -7 c 0,28,29
 63 14 63 14 63 59 c 0,30,31
 63 88 63 88 90 127 c 0,32,33
 111 158 111 158 151 158 c 0,34,35
 189 158 189 158 189 119 c 0,36,37
 189 102 189 102 169 88 c 0,38,39
 150 75 150 75 128 75 c 0,40,41
 111 75 111 75 100 85 c 1,42,43
 95 72 95 72 95 63 c 0,44,45
 95 5 95 5 246 5 c 0,46,47
 278 5 278 5 318 31 c 0,48,49
 359 57 359 57 384 92 c 0,50,51
 406 123 406 123 431 178 c 0,52,53
 446 212 446 212 457 232 c 1,54,55
 405 194 405 194 357 194 c 0,56,57
 263 194 263 194 245 267 c 0,58,59
 244 273 244 273 243 279 c 1,60,61
 214 275 214 275 193 275 c 0,62,63
 62 275 62 275 21 352 c 0,64,65
 6 378 6 378 6 409 c 0,66,67
 6 467 6 467 53 533 c 0,68,69
 98 595 98 595 166 637 c 0,70,71
 235 681 235 681 295 681 c 0,72,73
 308 681 308 681 308 668 c 0,74,75
 308 666 308 666 302 655 c 2,76,-1
 302 654 l 1,77,-1
 302 653 l 2,78,79
 298 649 298 649 291 649 c 0,80,81
 254 649 254 649 202 612 c 0,82,83
 157 578 157 578 113 517 c 0,84,85
 64 445 64 445 64 395 c 0,86,87
 64 379 64 379 70 366 c 0,88,89
 95 307 95 307 197 307 c 0,90,91
 216 307 216 307 243 311 c 1,92,93
 250 365 250 365 295 428 c 0,94,95
 380 550 380 550 484 634 c 0,96,97
 590 722 590 722 656 722 c 0,98,99
 719 722 719 722 737 681 c 0,100,101
 742 667 742 667 742 654 c 0,102,103
 742 621 742 621 717 587 c 0,104,105
 626 459 626 459 473 367 c 0,106,107
 398 322 398 322 322 297 c 1,108,109
 317 280 317 280 316 272 c 2,110,-1
 316 267 l 2,111,112
 316 226 316 226 361 226 c 0,113,114
 388 226 388 226 419 244 c 0,115,116
 451 263 451 263 470 281 c 0,117,118
 488 298 488 298 526 336 c 1,0,1
388 412 m 0,119,120
 358 368 358 368 342 342 c 1,121,122
 392 363 392 363 438 392 c 0,123,124
 565 474 565 474 657 603 c 0,125,126
 686 644 686 644 686 666 c 2,127,-1
 686 671 l 2,128,129
 683 689 683 689 652 689 c 0,130,131
 618 689 618 689 543 612 c 0,132,133
 494 562 494 562 388 412 c 0,119,120
EndSplineSet
Validated: 19457
EndChar

StartChar: H
Encoding: 72 72 6
Width: 969
Flags: W
HStem: -27 32<86.7704 224.872> -13 32<691.775 780.804> 75 83<64.3762 144.112> 369 32<653 745 877 950.699> 450 32<519.348 605.415> 603 32<433.898 491.752> 681 32<1116.04 1202.53>
VStem: 28 31<28.8115 85.6097> 327 35<494 514> 455 64<482.047 535.738> 492 60<535.231 602.945> 610 72<24.936 143.984> 1209 36<581.819 675.581>
LayerCount: 2
Fore
SplineSet
925 140 m 0,0,1
 925 136 925 136 923 133 c 2,2,-1
 923 132 l 1,3,4
 880 72 880 72 829 30 c 0,5,6
 776 -13 776 -13 730 -13 c 0,7,8
 670 -13 670 -13 640 15.5 c 128,-1,9
 610 44 610 44 610 94 c 0,10,11
 610 180 610 180 687 288 c 0,12,13
 706 315 706 315 745 369 c 1,14,-1
 695 369 l 2,15,16
 652 369 652 369 629 368 c 1,17,18
 588 312 588 312 509 202 c 0,19,20
 443 110 443 110 345 42 c 0,21,22
 246 -27 246 -27 165 -27 c 0,23,24
 107 -27 107 -27 68 -6 c 0,25,26
 48 5 48 5 38 21 c 128,-1,27
 28 37 28 37 28 57 c 0,28,29
 28 88 28 88 55 127 c 0,30,31
 76 158 76 158 116 158 c 0,32,33
 154 158 154 158 154 119 c 0,34,35
 154 102 154 102 134 88 c 0,36,37
 115 75 115 75 93 75 c 0,38,39
 76 75 76 75 64 86 c 1,40,41
 59 72 59 72 59 61 c 0,42,43
 59 34 59 34 88 20 c 0,44,45
 118 5 118 5 169 5 c 0,46,47
 266 5 266 5 415 218 c 0,48,49
 456 277 456 277 522 359 c 1,50,51
 357 336 357 336 288 238 c 0,52,53
 284 232 284 232 276 232 c 2,54,-1
 265 232 l 2,55,56
 252 232 252 232 252 245 c 0,57,-1
 252 246 l 1,58,-1
 253 251 l 1,59,-1
 253 252 l 1,60,-1
 254 253 l 2,61,62
 341 375 341 375 551 396 c 1,63,64
 572 421 572 421 611 465 c 1,65,66
 569 450 569 450 531 450 c 0,67,68
 500 450 500 450 478 461 c 0,69,70
 455 473 455 473 455 496 c 0,71,72
 455 513 455 513 469 533 c 0,73,74
 492 566 492 566 492 585 c 0,75,76
 492 603 492 603 472 603 c 0,77,78
 448 603 448 603 424 578 c 0,79,80
 398 551 398 551 362 500 c 0,81,-1
 362 499 l 2,82,83
 357 494 357 494 351 494 c 2,84,-1
 340 494 l 2,85,86
 327 494 327 494 327 508 c 2,87,-1
 328 514 l 1,88,89
 412 635 412 635 476 635 c 0,90,91
 511 635 511 635 531 619 c 0,92,93
 552 603 552 603 552 576 c 0,94,95
 552 551 552 551 530 517 c 0,96,97
 519 502 519 502 519 493 c 0,98,99
 519 482 519 482 534 482 c 0,100,101
 576 482 576 482 624.5 506.5 c 128,-1,102
 673 531 673 531 699 568 c 0,103,-1
 700 569 l 1,104,105
 799 666 799 666 852 718 c 0,106,107
 856 722 856 722 862 722 c 0,108,109
 872 722 872 722 875 713 c 2,110,-1
 878 705 l 1,111,-1
 878 704 l 1,112,-1
 878 703 l 2,113,114
 878 696 878 696 875 692 c 0,115,116
 767 555 767 555 653 401 c 1,117,-1
 768 401 l 1,118,119
 874 543 874 543 971 627 c 0,120,121
 1070 713 1070 713 1169 713 c 0,122,123
 1245 713 1245 713 1245 644 c 0,124,125
 1245 588 1245 588 1195 517 c 0,126,127
 1142 443 1142 443 1054 411 c 0,128,129
 968 380 968 380 852 372 c 1,130,131
 827 338 827 338 780 272 c 0,132,133
 682 132 682 132 682 65 c 0,134,135
 682 19 682 19 734 19 c 0,136,137
 767 19 767 19 808 55 c 0,138,139
 850 92 850 92 890 148 c 0,140,141
 893 153 893 153 901 153 c 2,142,-1
 912 153 l 2,143,144
 925 153 925 153 925 140 c 0,0,1
1165 681 m 0,145,146
 1116 681 1116 681 1043 606 c 0,147,148
 971 533 971 533 877 406 c 1,149,150
 1086 426 1086 426 1162 533 c 0,151,152
 1209 600 1209 600 1209 641 c 0,153,154
 1209 681 1209 681 1165 681 c 0,145,146
EndSplineSet
Validated: 19457
EndChar

StartChar: I
Encoding: 73 73 7
Width: 809
Flags: W
HStem: -22 33<108.083 265.889> 75 83<89.3452 168.112>
VStem: 53 32<31.6761 84.343> 398 56<286.908 419.99> 777 34<391.684 499.984>
LayerCount: 2
Fore
SplineSet
645 477 m 0,0,1
 712 571 712 571 817 647 c 1,2,3
 813 646 813 646 810 645 c 0,4,5
 761 630 761 630 739 622.5 c 128,-1,6
 717 615 717 615 675 599 c 0,7,8
 634 583 634 583 610.5 568.5 c 128,-1,9
 587 554 587 554 559 531 c 0,10,11
 532 508 532 508 513 482 c 0,12,13
 454 399 454 399 454 341 c 0,14,15
 454 329 454 329 457 319 c 0,16,17
 467 282 467 282 509 267 c 1,18,19
 526 293 526 293 569 362 c 0,20,21
 616 436 616 436 645 477 c 0,0,1
706 461 m 0,22,23
 677 420 677 420 645 348 c 0,24,25
 619 289 619 289 606 264 c 1,26,27
 634 271 634 271 662 286 c 0,28,29
 711 314 711 314 741 358 c 0,30,31
 777 409 777 409 777 462 c 0,32,33
 777 470 777 470 775 485 c 2,34,-1
 775 486 l 2,35,36
 775 495 775 495 782 499 c 2,37,-1
 784 500 l 1,38,-1
 785 500 l 2,39,40
 786 500 l 0,41,42
 791 503 791 503 794 503 c 2,43,-1
 796 503 l 2,44,45
 806 503 806 503 809 492 c 0,46,-1
 809 491 l 2,47,48
 811 469 811 469 811 456 c 0,49,50
 811 394 811 394 774 342 c 0,51,52
 739 294 739 294 678 261 c 0,53,54
 634 236 634 236 587 228 c 1,55,-1
 570 202 l 2,56,57
 510 109 510 109 398.5 43.5 c 128,-1,58
 287 -22 287 -22 194 -22 c 0,59,60
 135 -22 135 -22 95 -1 c 0,61,62
 53 20 53 20 53 60 c 0,63,64
 53 89 53 89 79 127 c 0,65,66
 101 158 101 158 140 158 c 0,67,68
 178 158 178 158 178 119 c 0,69,70
 178 102 178 102 158 88 c 0,71,72
 139 75 139 75 117 75 c 0,73,74
 100 75 100 75 89 85 c 1,75,76
 85 74 85 74 85 64 c 0,77,78
 85 11 85 11 198 11 c 0,79,80
 259 11 259 11 337 71 c 0,81,82
 415 132 415 132 476 218 c 2,83,-1
 489 236 l 1,84,85
 426 257 426 257 406 308 c 0,86,87
 398 330 398 330 398 354 c 0,88,89
 398 421 398 421 452 498 c 0,90,91
 491 553 491 553 551 589 c 0,92,93
 612 625 612 625 667 640 c 128,-1,94
 722 655 722 655 803 677 c 128,-1,95
 884 699 884 699 935 720 c 0,96,97
 939 722 939 722 942 722 c 0,98,99
 952 722 952 722 955 713 c 2,100,-1
 955 712 l 1,101,-1
 955 711 l 1,102,-1
 956 710 l 1,103,-1
 956 709 l 1,104,-1
 957 701 l 1,105,-1
 957 700 l 2,106,107
 957 692 957 692 952 689 c 0,108,109
 797 592 797 592 706 461 c 0,22,23
EndSplineSet
Validated: 19457
EndChar

StartChar: J
Encoding: 74 74 8
Width: 1052
Flags: W
HStem: -305 32<135.127 238.034>
VStem: 93 30<-259.969 -175.445> 585 56<286.612 419.99> 964 34<391.684 499.984>
LayerCount: 2
Fore
SplineSet
832 477 m 0,0,1
 899 571 899 571 1004 647 c 1,2,3
 1000 646 1000 646 997 645 c 0,4,5
 948 630 948 630 926 622.5 c 128,-1,6
 904 615 904 615 862 599 c 0,7,8
 821 583 821 583 797.5 568.5 c 128,-1,9
 774 554 774 554 746 531 c 0,10,11
 719 508 719 508 700 482 c 0,12,13
 641 399 641 399 641 341 c 0,14,15
 641 329 641 329 644 319 c 0,16,17
 653 283 653 283 695 267 c 1,18,19
 708 289 708 289 735 330 c 0,20,21
 764 376 764 376 787 410.5 c 128,-1,22
 810 445 810 445 832 477 c 0,0,1
971 500 m 0,23,24
 976 503 976 503 981 503 c 2,25,-1
 983 503 l 2,26,27
 993 503 993 503 996 492 c 0,28,-1
 996 491 l 2,29,30
 998 469 998 469 998 456 c 0,31,32
 998 394 998 394 961 342 c 0,33,34
 929 298 929 298 865 261 c 0,35,36
 817 233 817 233 769 227 c 1,37,38
 748 190 748 190 732 167 c 0,39,40
 691 108 691 108 648 56 c 1,41,42
 795 99 795 99 824 148 c 0,43,44
 827 153 827 153 835 153 c 2,45,-1
 837 153 l 2,46,47
 851 153 851 153 851 140 c 0,48,49
 851 138 851 138 848 133 c 2,50,-1
 848 132 l 1,51,52
 800 64 800 64 613 14 c 1,53,54
 525 -87 525 -87 435 -165 c 0,55,56
 273 -305 273 -305 181 -305 c 0,57,58
 104 -305 104 -305 95 -250 c 0,59,60
 93 -238 93 -238 93 -230 c 0,61,62
 93 -183 93 -183 131 -131 c 0,63,64
 152 -102 152 -102 190 -79 c 0,65,66
 229 -56 229 -56 287 -37 c 0,67,68
 358 -14 358 -14 383 -8 c 0,69,70
 446 6 446 6 487 16 c 0,71,72
 509 22 509 22 522 24 c 1,73,74
 573 91 573 91 638 183 c 0,75,76
 662 217 662 217 675 237 c 1,77,78
 613 256 613 256 593 308 c 0,79,80
 585 330 585 330 585 354 c 0,81,82
 585 421 585 421 639 498 c 0,83,84
 678 553 678 553 738 589 c 0,85,86
 799 625 799 625 855 640 c 0,87,88
 910 655 910 655 991 677 c 0,89,90
 1091 704 1091 704 1122 720 c 0,91,92
 1126 722 1126 722 1129 722 c 0,93,94
 1142 722 1142 722 1142 712 c 2,95,-1
 1142 711 l 1,96,-1
 1143 710 l 1,97,-1
 1143 709 l 1,98,-1
 1144 701 l 1,99,-1
 1144 700 l 2,100,101
 1144 692 1144 692 1139 689 c 0,102,103
 988 594 988 594 893 461 c 0,104,105
 871 430 871 430 852.5 397 c 128,-1,106
 834 364 834 364 814 318 c 0,107,108
 798 282 798 282 788 263 c 1,109,110
 817 269 817 269 849 286 c 0,111,112
 898 314 898 314 928 358 c 0,113,114
 964 409 964 409 964 462 c 0,115,116
 964 470 964 470 962 485 c 2,117,-1
 962 486 l 2,118,119
 962 495 962 495 966 497 c 2,120,-1
 971 500 l 0,23,24
184 -273 m 0,121,122
 221 -273 221 -273 267 -239 c 0,123,124
 314 -205 314 -205 376 -142 c 0,125,126
 432 -86 432 -86 491 -15 c 1,127,128
 426 -30 426 -30 387 -40 c 128,-1,129
 348 -50 348 -50 294 -67 c 128,-1,130
 240 -84 240 -84 205 -104 c 0,131,132
 171 -123 171 -123 155 -147 c 0,133,134
 123 -192 123 -192 123 -226 c 0,135,136
 123 -232 123 -232 125 -240 c 0,137,138
 134 -273 134 -273 184 -273 c 0,121,122
EndSplineSet
Validated: 19457
EndChar

StartChar: K
Encoding: 75 75 9
Width: 914
Flags: W
HStem: -27 32<86.7704 224.872 636.661 703.646> 75 83<64.3762 144.112> 299 32<619 647.47> 363 32<645.345 669.921> 450 32<519.721 606.536> 603 32<442.607 495.746> 674 34<1118.82 1195>
VStem: 28 31<28.8115 85.6097> 322 35<487 506.906> 459 60<482.033 490 491 536.082> 496 55<541.244 602.296> 556 63<18.5907 149.131> 834 36<133.156 153>
LayerCount: 2
Fore
SplineSet
547 599 m 0,0,1
 551 590 551 590 551 576 c 0,2,3
 551 548 551 548 529 517 c 0,4,5
 519 501 519 501 519 493 c 2,6,-1
 519 491 l 1,7,-1
 520 490 l 1,8,-1
 520 489 l 2,9,10
 521 482 521 482 534 482 c 0,11,12
 578 482 578 482 626 507 c 0,13,14
 675 533 675 533 699 568 c 0,15,-1
 700 569 l 1,16,17
 799 666 799 666 852 718 c 0,18,19
 854 720 854 720 860 721 c 2,20,-1
 861 722 l 1,21,-1
 862 722 l 1,22,-1
 863 722 l 2,23,24
 872 722 872 722 875 713 c 2,25,-1
 875 712 l 1,26,-1
 878 701 l 1,27,-1
 878 700 l 2,28,29
 878 698 878 698 875 693 c 2,30,-1
 875 692 l 1,31,32
 755 540 755 540 645 391 c 1,33,34
 657 395 657 395 667 395 c 0,35,36
 710 395 710 395 725 364 c 1,37,38
 756 381 756 381 785 404 c 0,39,40
 877 474 877 474 956 585 c 0,41,42
 993 637 993 637 1054 672 c 0,43,44
 1116 708 1116 708 1168 708 c 0,45,46
 1182 708 1182 708 1194 705 c 2,47,-1
 1195 705 l 1,48,-1
 1195 704 l 2,49,50
 1200 701 1200 701 1203 696 c 2,51,-1
 1204 695 l 1,52,-1
 1204 694 l 2,53,54
 1204 693 1204 693 1204 692 c 0,55,56
 1205 689 1205 689 1205 687 c 0,57,58
 1205 674 1205 674 1192 674 c 2,59,-1
 1187 674 l 2,60,61
 1144 674 1144 674 1093 644 c 0,62,63
 1041 614 1041 614 1010 570 c 0,64,65
 932 459 932 459 818 379 c 0,66,67
 771 347 771 347 731 329 c 1,68,69
 729 289 729 289 692 237 c 0,70,71
 622 140 622 140 619 69 c 2,72,-1
 619 66 l 2,73,74
 619 11 619 11 672 11 c 0,75,76
 699 11 699 11 744 49 c 0,77,78
 796 93 796 93 834 148 c 0,79,-1
 834 149 l 2,80,81
 838 153 838 153 845 153 c 2,82,-1
 856 153 l 2,83,84
 870 153 870 153 870 140 c 0,85,86
 870 138 870 138 867 133 c 2,87,-1
 867 132 l 1,88,89
 824 71 824 71 765 25 c 0,90,91
 703 -22 703 -22 668 -22 c 0,92,93
 621 -22 621 -22 592.5 1.5 c 128,-1,94
 564 25 564 25 558 64 c 0,95,96
 556 73 556 73 556 93 c 0,97,98
 556 171 556 171 615 253 c 0,99,100
 637 284 637 284 648 302 c 1,101,102
 631 299 631 299 618 299 c 0,103,104
 597 299 597 299 585 309 c 1,105,-1
 552 262 l 1,106,-1
 509 202 l 2,107,108
 443 110 443 110 345 42 c 0,109,110
 246 -27 246 -27 165 -27 c 0,111,112
 107 -27 107 -27 68 -6 c 0,113,114
 48 5 48 5 38 21 c 128,-1,115
 28 37 28 37 28 57 c 0,116,117
 28 88 28 88 55 127 c 0,118,119
 76 158 76 158 116 158 c 0,120,121
 154 158 154 158 154 119 c 0,122,123
 154 102 154 102 134 88 c 0,124,125
 115 75 115 75 93 75 c 0,126,127
 76 75 76 75 64 86 c 1,128,129
 59 72 59 72 59 61 c 0,130,131
 59 34 59 34 88 20 c 0,132,133
 118 5 118 5 169 5 c 0,134,135
 266 5 266 5 415 218 c 0,136,137
 503 343 503 343 612 467 c 1,138,139
 567 450 567 450 530 450 c 0,140,141
 491 450 491 450 471 474 c 0,142,143
 459 488 459 488 459 504 c 128,-1,144
 459 520 459 520 469 533 c 0,145,146
 496 572 496 572 496 587 c 2,147,-1
 496 589 l 2,148,149
 494 603 494 603 472 603 c 0,150,151
 459 603 459 603 425 573 c 0,152,153
 392 542 392 542 357 493 c 0,154,-1
 357 492 l 2,155,156
 352 487 352 487 346 487 c 2,157,-1
 335 487 l 2,158,159
 322 487 322 487 322 500 c 0,160,161
 322 504 322 504 323 507 c 0,162,163
 358 557 358 557 403 596 c 0,164,165
 446 635 446 635 476 635 c 0,166,167
 532 635 532 635 547 599 c 0,0,1
642 354 m 0,168,169
 631 346 631 346 619 331 c 1,170,171
 621 331 621 331 622 331 c 0,172,173
 644 331 644 331 669 340 c 0,174,175
 669 341 l 2,176,-1
 669 342 l 1,177,-1
 669 343 l 2,178,179
 671 347 671 347 671 355 c 128,-1,180
 671 363 671 363 663 363 c 0,181,182
 654 363 654 363 642 354 c 0,168,169
EndSplineSet
Validated: 19457
EndChar

StartChar: L
Encoding: 76 76 10
Width: 874
Flags: W
HStem: -22 59<421.654 638.83> -22 33<77.7744 235.578> 68 32<99.1643 274.48> 331 32<421.093 541.5> 673 31<526.068 604.969 605 606> 689 33<915.935 982.437>
VStem: 7 68<14.5 50.9535> 288 66<407.507 529.872> 991 47<572.811 683.274>
LayerCount: 2
Fore
SplineSet
805 140 m 0,0,1
 805 138 805 138 802 133 c 2,2,-1
 802 132 l 1,3,4
 757 69 757 69 684 24 c 0,5,6
 610 -22 610 -22 548 -22 c 0,7,8
 467 -22 467 -22 354 23 c 2,9,-1
 344 28 l 1,10,11
 242 -22 242 -22 160 -22 c 2,12,-1
 144 -22 l 2,13,14
 7 -22 7 -22 7 21 c 0,15,16
 7 33 7 33 19 50 c 0,17,18
 35 73 35 73 64 85 c 0,19,20
 92 96 92 96 113 98 c 0,21,22
 133 100 133 100 166 100 c 2,23,-1
 172 100 l 2,24,25
 240 100 240 100 327 80 c 1,26,27
 405 137 405 137 462 218 c 0,28,29
 496 267 496 267 542 331 c 1,30,31
 533 331 533 331 520 331 c 0,32,33
 420 331 420 331 355 364 c 0,34,35
 288 397 288 397 288 461 c 0,36,37
 288 510 288 510 329 568 c 0,38,39
 371 627 371 627 441 668 c 0,40,41
 512 709 512 709 571 709 c 0,42,43
 590 709 590 709 603 705 c 2,44,-1
 605 704 l 1,45,-1
 606 704 l 1,46,-1
 607 702 l 2,47,48
 613 698 613 698 613 692 c 0,49,50
 613 688 613 688 609 682 c 2,51,-1
 606 678 l 2,52,53
 603 673 603 673 596 673 c 0,54,55
 546 673 546 673 486 638 c 0,56,57
 425 603 425 603 390 552 c 0,58,59
 354 502 354 502 354 461 c 0,60,61
 354 415 354 415 399 389 c 0,62,63
 446 363 446 363 524 363 c 0,64,65
 538 363 538 363 566 365 c 1,66,67
 621 440 621 440 666 496 c 0,68,69
 712 553 712 553 764 608 c 128,-1,70
 816 663 816 663 861 692 c 0,71,72
 907 722 907 722 944 722 c 0,73,74
 990 722 990 722 1014 700 c 128,-1,75
 1038 678 1038 678 1038 640 c 0,76,77
 1038 584 1038 584 991 517 c 0,78,79
 892 376 892 376 654 340 c 1,80,-1
 555 202 l 2,81,82
 497 121 497 121 403 61 c 1,83,84
 505 37 505 37 571 37 c 0,85,86
 619 37 619 37 678 69.5 c 128,-1,87
 737 102 737 102 770 148 c 0,88,89
 773 153 773 153 780 153 c 2,90,-1
 792 153 l 2,91,92
 805 153 805 153 805 140 c 0,0,1
164 11 m 0,93,94
 217 11 217 11 282 50 c 1,95,96
 224 68 224 68 168 68 c 0,97,98
 103 68 103 68 79 34 c 0,99,100
 75 29 75 29 75 24 c 0,101,102
 75 11 75 11 164 11 c 0,93,94
940 689 m 0,103,104
 925 689 925 689 857.5 609 c 128,-1,105
 790 529 790 529 682 380 c 1,106,107
 864 418 864 418 945 533 c 0,108,109
 991 599 991 599 991 643 c 0,110,111
 991 689 991 689 940 689 c 0,103,104
EndSplineSet
Validated: 19457
EndChar

StartChar: M
Encoding: 77 77 11
Width: 1080
Flags: W
HStem: -33 32<791.366 851.971> -13 32<73.5046 189.531> 42 87<71.4297 131.037>
VStem: 43 100<56.5488 118.099> 722 69<-0.974731 85.6904>
LayerCount: 2
Fore
SplineSet
1100 552 m 1,0,1
 1055 488 1055 488 982 361 c 0,2,3
 908 233 908 233 861 168 c 0,4,5
 808 92 808 92 795 38 c 0,6,7
 791 26 791 26 791 14 c 0,8,9
 791 -1 791 -1 803 -1 c 0,10,11
 836 -1 836 -1 890 39 c 0,12,13
 945 80 945 80 986 138 c 0,14,15
 989 145 989 145 998 145 c 2,16,-1
 1009 145 l 2,17,18
 1012 145 1012 145 1018 141 c 0,19,20
 1022 138 1022 138 1022 132 c 0,21,22
 1022 128 1022 128 1019 125 c 0,23,24
 975 62 975 62 910 15 c 0,25,26
 845 -33 845 -33 799 -33 c 0,27,28
 765 -33 765 -33 745 -14 c 0,29,30
 726 5 726 5 723 36 c 0,31,32
 722 41 722 41 722 53 c 0,33,34
 722 119 722 119 768 183 c 0,35,36
 799 226 799 226 830.5 275 c 128,-1,37
 862 324 862 324 898 383 c 0,38,39
 919 417 919 417 936 442 c 1,40,41
 852 364 852 364 802 307 c 0,42,-1
 802 306 l 2,43,44
 796 300 796 300 777 277 c 0,45,46
 636 111 636 111 564.5 35 c 128,-1,47
 493 -41 493 -41 475 -41 c 0,48,49
 425 -41 425 -41 425 21 c 2,50,-1
 425 35 l 1,51,52
 432 110 432 110 482 183 c 0,53,54
 528 247 528 247 621 366 c 0,55,56
 692 457 692 457 731 508 c 1,57,58
 687 475 687 475 661 456 c 0,59,60
 628 431 628 431 579.5 387.5 c 128,-1,61
 531 344 531 344 497 306 c 0,62,63
 475 281 475 281 430 226.5 c 128,-1,64
 385 172 385 172 355 138.5 c 128,-1,65
 325 105 325 105 283 65 c 0,66,67
 262 45 262 45 241.5 30.5 c 128,-1,68
 221 16 221 16 200 6.5 c 128,-1,69
 179 -3 179 -3 158.5 -8 c 128,-1,70
 138 -13 138 -13 117 -13 c 0,71,72
 79 -13 79 -13 52 3 c 0,73,74
 24 19 24 19 24 49 c 0,75,76
 24 73 24 73 43 99 c 0,77,-1
 43 100 l 2,78,79
 49 106 49 106 53 107 c 0,80,81
 71 129 71 129 103 129 c 0,82,83
 143 129 143 129 143 88 c 0,84,85
 143 70 143 70 121 56 c 0,86,87
 100 42 100 42 80 42 c 0,88,89
 75 42 75 42 71 43 c 1,90,91
 71 38 71 38 73 34 c 0,92,93
 89 19 89 19 124 19 c 2,94,-1
 133 19 l 2,95,96
 173 21 173 21 217 51 c 128,-1,97
 261 81 261 81 289 113 c 0,98,99
 318 145 318 145 375.5 216 c 128,-1,100
 433 287 433 287 465 324 c 0,101,102
 538 406 538 406 710 535 c 0,103,104
 880 663 880 663 940 719 c 0,105,106
 944 724 944 724 949 724 c 2,107,-1
 950 724 l 1,108,-1
 954 723 l 1,109,-1
 956 723 l 1,110,-1
 957 722 l 2,111,112
 958 721 958 721 959 720 c 0,113,114
 963 718 963 718 966 717 c 0,115,116
 971 712 971 712 971 706 c 0,117,118
 971 704 971 704 968 699 c 2,119,-1
 968 698 l 1,120,-1
 851 552 l 1,121,-1
 576 167 l 2,122,123
 524 95 524 95 502 40 c 0,124,125
 492 16 492 16 490 7 c 1,126,127
 526 35 526 35 770 323 c 0,128,129
 837 402 837 402 992 538 c 0,130,131
 996 542 996 542 1005 552 c 128,-1,132
 1014 562 1014 562 1020 569 c 2,133,-1
 1021 569 l 1,134,-1
 1190 720 l 2,135,136
 1193 723 1193 723 1199 723 c 2,137,-1
 1200 723 l 1,138,-1
 1211 720 l 1,139,-1
 1212 720 l 1,140,-1
 1213 719 l 1,141,-1
 1216 717 l 1,142,-1
 1217 717 l 2,143,144
 1220 714 1220 714 1220 707 c 0,145,146
 1220 703 1220 703 1218 700 c 2,147,-1
 1100 552 l 1,0,1
EndSplineSet
Validated: 19457
EndChar

StartChar: N
Encoding: 78 78 12
Width: 902
Flags: W
HStem: -27 32<86.7704 232.75> -13 21G<641 660.5> 75 83<64.3452 143.618>
VStem: 28 31<28.8115 84.5718> 633 36<-11.874 27.1914> 682 87<246 511.719> 685 92<247.467 472.637> 778 35<686 705>
LayerCount: 2
Fore
SplineSet
789 705 m 2,0,-1
 800 705 l 2,1,2
 813 705 813 705 813 692 c 2,3,-1
 812 686 l 1,4,5
 769 622 769 622 769 495 c 0,6,7
 769 457 769 457 773 407 c 0,8,9
 777 356 777 356 777 350 c 2,10,-1
 777 334 l 2,11,12
 777 293 777 293 767 246 c 1,13,14
 834 353 834 353 910 463 c 0,15,16
 975 555 975 555 1042 622 c 0,17,18
 1110 689 1110 689 1193 724 c 2,19,-1
 1194 724 l 1,20,-1
 1195 724 l 1,21,-1
 1199 724 l 2,22,23
 1211 724 1211 724 1211 712 c 0,24,-1
 1211 711 l 1,25,-1
 1208 687 l 2,26,27
 1203 678 1203 678 1201 677 c 2,28,-1
 1200 677 l 1,29,-1
 1200 676 l 2,30,31
 1065 621 1065 621 942 447 c 0,32,33
 781 218 781 218 669 -6 c 2,34,-1
 669 -7 l 2,35,36
 664 -13 664 -13 657 -13 c 2,37,-1
 646 -13 l 1,38,-1
 641 -12 l 2,39,40
 633 -8 633 -8 633 0 c 0,41,42
 633 3 633 3 635 6 c 0,43,44
 685 102 685 102 685 214 c 0,45,46
 685 241 685 241 682 289.5 c 128,-1,47
 679 338 679 338 678 350 c 0,48,-1
 682 461 l 1,49,-1
 682 462 l 1,50,-1
 683 469 l 1,51,52
 685 476 685 476 689 495 c 0,53,54
 690 503 690 503 692 512 c 1,55,56
 564 329 564 329 470 202 c 0,57,58
 401 107 401 107 319 41 c 0,59,60
 278 7 278 7 239.5 -10 c 128,-1,61
 201 -27 201 -27 165 -27 c 0,62,63
 107 -27 107 -27 68 -6 c 0,64,65
 48 5 48 5 38 21 c 128,-1,66
 28 37 28 37 28 57 c 0,67,68
 28 88 28 88 55 127 c 0,69,70
 76 158 76 158 116 158 c 0,71,72
 154 158 154 158 154 119 c 0,73,74
 154 102 154 102 133 88 c 0,75,76
 113 75 113 75 92 75 c 0,77,78
 75 75 75 75 64 85 c 1,79,80
 59 71 59 71 59 61 c 0,81,82
 59 34 59 34 88 20 c 0,83,84
 118 5 118 5 169 5 c 0,85,86
 229 5 229 5 301 66 c 0,87,88
 374 128 374 128 438 218 c 0,89,90
 550 378 550 378 778 700 c 0,91,-1
 778 701 l 2,92,93
 783 705 783 705 789 705 c 2,0,-1
EndSplineSet
Validated: 19457
EndChar

StartChar: O
Encoding: 79 79 13
Width: 738
Flags: W
HStem: -13 32<204.839 329.485> 544 32<504.517 606.384> 681 32<555.858 717.756>
VStem: 90 73<62.4629 215.438> 193 40<109.016 207.469> 771 37<543.303 642.479>
LayerCount: 2
Fore
SplineSet
518 496 m 2,0,-1
 523 502 l 1,1,-1
 524 503 l 1,2,-1
 525 503 l 2,3,4
 530 506 530 506 533 506 c 128,-1,5
 536 506 536 506 540 504 c 2,6,-1
 557 495 l 2,7,8
 571 488 571 488 577 486 c 128,-1,9
 583 484 583 484 595 479 c 0,10,11
 606 475 606 475 616 473 c 0,12,13
 623 472 623 472 632 472 c 1,14,15
 627 544 627 544 550 544 c 0,16,17
 514 544 514 544 448 487 c 0,18,19
 385 432 385 432 320 342 c 0,20,21
 249 240 249 240 233 120 c 0,22,-1
 233 119 l 2,23,24
 230 113 230 113 226 110 c 2,25,-1
 225 109 l 1,26,-1
 212 105 l 2,27,28
 209 103 209 103 205 103 c 0,29,30
 197 103 197 103 193 111 c 2,31,-1
 193 112 l 1,32,-1
 193 113 l 1,33,-1
 193 117 l 1,34,-1
 193 118 l 1,35,36
 209 246 209 246 288 358 c 0,37,38
 352 449 352 449 427 511 c 0,39,40
 506 576 506 576 554 576 c 0,41,42
 611 576 611 576 644 548 c 0,43,44
 675 522 675 522 682 479 c 1,45,46
 689 482 689 482 698 488 c 0,47,-1
 699 488 l 2,48,49
 726 503 726 503 746 533 c 0,50,51
 771 570 771 570 771 599 c 0,52,53
 771 621 771 621 758 637 c 0,54,55
 721 681 721 681 619 681 c 0,56,57
 556 681 556 681 463 604 c 0,58,59
 387 542 387 542 295 412 c 0,60,61
 167 231 167 231 163 126 c 2,62,-1
 163 121 l 2,63,64
 163 74 163 74 190 46.5 c 128,-1,65
 217 19 217 19 271 19 c 0,66,67
 321 19 321 19 393 75 c 0,68,69
 459 127 459 127 523 218 c 0,70,71
 619 352 619 352 630 439 c 1,72,73
 581 442 581 442 522 476 c 0,74,75
 514 483 514 483 514 487 c 0,76,77
 514 492 514 492 518 496 c 2,0,-1
717 462 m 0,78,79
 698 451 698 451 684 447 c 1,80,81
 683 342 683 342 584 202 c 0,82,83
 521 113 521 113 430 51 c 0,84,85
 339 -13 339 -13 267 -13 c 0,86,87
 191 -13 191 -13 146 23 c 0,88,89
 100 59 100 59 92 121 c 0,90,91
 90 139 90 139 90 150 c 0,92,93
 90 268 90 268 201 428 c 0,94,95
 285 546 285 546 407 629 c 0,96,97
 531 713 531 713 623 713 c 0,98,99
 742 713 742 713 787 657 c 0,100,101
 808 633 808 633 808 598 c 0,102,103
 808 557 808 557 779 517 c 0,104,105
 754 484 754 484 717 462 c 0,78,79
EndSplineSet
Validated: 19457
EndChar

StartChar: P
Encoding: 80 80 14
Width: 1013
Flags: W
HStem: -27 32<153.629 310.165> 75 83<132.313 205.112> 264 32<272.973 384.154 728.119 810.877> 418 32<651.875 690.874> 673 32<1012.7 1036.97> 689 33<593.14 837.55>
VStem: 89 39<24.7148 80.4855> 220 36<311.504 422.502> 581 38<318.565 387.083> 604 36<526.82 631.984> 961 75<450.531 590.247>
LayerCount: 2
Fore
SplineSet
632 322 m 0,0,1
 636 319 636 319 639 318 c 0,2,3
 792 531 792 531 916 633 c 1,4,5
 850 689 850 689 706 689 c 0,6,7
 599 689 599 689 484 630 c 0,8,9
 370 571 370 571 308 482 c 0,10,11
 256 406 256 406 256 356 c 0,12,13
 256 349 256 349 257 345 c 0,14,15
 263 296 263 296 326 296 c 0,16,17
 370 296 370 296 436 343 c 0,18,19
 497 388 497 388 550 463 c 0,20,21
 604 539 604 539 604 601 c 0,22,23
 604 613 604 613 603 617 c 2,24,-1
 603 618 l 2,25,26
 603 627 603 627 610 631 c 2,27,-1
 612 632 l 1,28,-1
 613 632 l 2,29,-1
 614 632 l 0,30,31
 619 635 619 635 622 635 c 2,32,-1
 623 635 l 2,33,34
 635 635 635 635 636 623 c 0,35,36
 640 594 640 594 640 576 c 0,37,38
 640 507 640 507 597 447 c 0,39,40
 543 372 543 372 464 318 c 0,41,42
 384 264 384 264 322 264 c 0,43,44
 280 264 280 264 254 283 c 0,45,46
 227 303 227 303 221 337 c 0,47,48
 220 343 220 343 220 356 c 0,49,50
 220 420 220 420 276 498 c 0,51,52
 343 592 343 592 469 656 c 0,53,54
 596 722 596 722 710 722 c 0,55,56
 867 722 867 722 955 663 c 1,57,58
 978 680 978 680 1015 703 c 0,59,60
 1020 705 1020 705 1022 705 c 0,61,62
 1033 705 1033 705 1035 697 c 2,63,-1
 1038 685 l 1,64,-1
 1038 684 l 2,65,66
 1038 679 1038 679 1033 673 c 2,67,-1
 1032 673 l 2,68,69
 1014 661 1014 661 989 635 c 1,70,71
 994 629 994 629 1000 622 c 0,72,73
 1036 578 1036 578 1036 521 c 0,74,75
 1036 452 1036 452 982 377 c 0,76,77
 949 330 949 330 877 296 c 0,78,79
 806 264 806 264 737 264 c 0,80,81
 717 264 717 264 706 265 c 1,82,-1
 687 237 l 2,83,84
 609 127 609 127 474.5 50 c 128,-1,85
 340 -27 340 -27 227 -27 c 0,86,87
 168 -27 168 -27 129 -6 c 0,88,89
 89 16 89 16 89 57 c 0,90,91
 89 88 89 88 116 127 c 0,92,93
 137 158 137 158 177 158 c 0,94,95
 215 158 215 158 215 119 c 0,96,97
 215 102 215 102 195 88 c 0,98,99
 176 75 176 75 155 75 c 0,100,101
 142 75 142 75 132 81 c 1,102,103
 128 70 128 70 128 60 c 0,104,105
 128 34 128 34 155 20 c 0,106,107
 183 5 183 5 231 5 c 0,108,109
 312 5 312 5 417 79 c 128,-1,110
 522 153 522 153 593 253 c 0,111,112
 599 261 599 261 609 276 c 0,113,114
 615 285 615 285 619 289 c 1,115,116
 612 293 612 293 606 298 c 0,117,118
 581 318 581 318 581 347 c 0,119,120
 581 369 581 369 598 393 c 0,121,122
 615 416 615 416 638 432 c 0,123,124
 661 450 661 450 684 450 c 0,125,126
 688 450 688 450 691 448 c 2,127,-1
 692 448 l 1,128,-1
 693 448 l 2,129,130
 697 444 697 444 697 437 c 0,131,132
 697 433 697 433 696 430 c 2,133,-1
 691 423 l 1,134,-1
 691 422 l 2,135,136
 687 418 687 418 680 418 c 0,137,138
 671 418 671 418 658 408 c 0,139,140
 644 396 644 396 630 377 c 0,141,142
 619 360 619 360 619 348 c 0,143,144
 619 332 619 332 632 322 c 0,0,1
741 296 m 0,145,146
 788 296 788 296 834 323 c 0,147,148
 872 345 872 345 905 393 c 0,149,150
 961 472 961 472 961 539 c 0,151,152
 961 568 961 568 950 591 c 1,153,154
 880 509 880 509 728 296 c 1,155,156
 734 296 734 296 741 296 c 0,145,146
EndSplineSet
Validated: 19457
EndChar

StartChar: Q
Encoding: 81 81 15
Width: 883
Flags: W
HStem: -22 53<485.213 663.141> -22 33<113.892 297.292> 79 66<138 305.145> 289 32<336.746 464.428> 689 33<581.117 752.011>
VStem: 49 50<23.5065 77.5803> 265 55<333.55 454.349> 615 58<454.369 577.776> 811 78<487.053 634.755>
LayerCount: 2
Fore
SplineSet
209 145 m 0,0,1
 249 145 249 145 287 135 c 128,-1,2
 325 125 325 125 348 116 c 128,-1,3
 371 107 371 107 408 87 c 2,4,-1
 421 81 l 1,5,6
 438 91 438 91 469 111 c 0,7,8
 605 201 605 201 716 358 c 0,9,10
 811 493 811 493 811 577 c 0,11,12
 811 585 811 585 809 598 c 0,13,14
 801 641 801 641 766 665 c 0,15,16
 730 689 730 689 669 689 c 0,17,18
 594 689 594 689 512 640 c 0,19,20
 434 595 434 595 380 517 c 0,21,22
 320 434 320 434 320 380 c 2,23,-1
 320 372 l 1,24,25
 325 321 325 321 390 321 c 0,26,27
 440 321 440 321 495 351 c 0,28,29
 544 378 544 378 577 428 c 0,30,31
 615 482 615 482 615 527 c 0,32,33
 615 564 615 564 592 585 c 2,34,-1
 591 586 l 1,35,-1
 589 589 l 1,36,-1
 588 590 l 1,37,-1
 588 592 l 1,38,-1
 588 594 l 2,39,40
 588 603 588 603 595 607 c 2,41,-1
 596 608 l 1,42,-1
 613 614 l 1,43,-1
 614 614 l 1,44,-1
 615 614 l 2,45,46
 620 614 620 614 623 611 c 0,47,48
 673 564 673 564 673 507 c 0,49,50
 673 461 673 461 638 412 c 0,51,52
 602 363 602 363 528 325 c 0,53,54
 454 289 454 289 386 289 c 0,55,56
 287 289 287 289 268 365 c 0,57,58
 265 380 265 380 265 394 c 0,59,60
 265 457 265 457 319 533 c 0,61,62
 377 613 377 613 478 666 c 0,63,64
 583 722 583 722 673 722 c 0,65,66
 751 722 751 722 805 693 c 0,67,68
 860 664 860 664 880 608 c 0,69,70
 889 580 889 580 889 548 c 0,71,72
 889 453 889 453 810 342 c 0,73,74
 704 192 704 192 524 86 c 0,75,76
 499 71 499 71 473 57 c 1,77,78
 537 31 537 31 600 31 c 0,79,80
 647 31 647 31 702 64 c 0,81,82
 762 100 762 100 795 148 c 0,83,-1
 795 149 l 2,84,85
 799 153 799 153 806 153 c 2,86,-1
 817 153 l 2,87,88
 830 153 830 153 830 140 c 0,89,90
 830 136 830 136 828 133 c 2,91,-1
 828 132 l 1,92,93
 788 74 788 74 713 27 c 0,94,95
 636 -22 636 -22 582 -22 c 0,96,97
 500 -22 500 -22 395 22 c 1,98,99
 339 0 339 0 289 -11 c 128,-1,100
 239 -22 239 -22 194 -22 c 0,101,102
 112 -22 112 -22 74 8 c 0,103,104
 49 28 49 28 49 53 c 0,105,106
 49 72 49 72 63 92 c 0,107,108
 80 114 80 114 122 130 c 0,109,110
 165 145 165 145 209 145 c 0,0,1
127 81 m 2,111,112
 112 79 112 79 109 76 c 0,113,114
 99 62 99 62 99 50 c 128,-1,115
 99 38 99 38 107 32 c 0,116,117
 132 11 132 11 198 11 c 128,-1,118
 264 11 264 11 344 44 c 1,119,120
 253 79 253 79 182 79 c 0,121,-1
 138 82 l 1,122,-1
 127 81 l 2,111,112
EndSplineSet
Validated: 19457
EndChar

StartChar: R
Encoding: 82 82 16
Width: 850
Flags: W
HStem: -16 32<57.6484 202.418 565.298 650.706> 76 82<36.2822 108.5> 261 32<174.361 271.406> 310 60<598 624.928> 689 33<495.023 732.666>
VStem: -7 40<34.3142 80.5271> 121 36<308.246 419.109> 460 40<504.736 574.453> 477 84<19.2537 89.8105> 624 73<267.484 315.907> 762 36<133.156 150.844> 830 62<490.679 624.427>
LayerCount: 2
Fore
SplineSet
612 370 m 2,0,1
 637 370 637 370 657 360 c 1,2,3
 676 368 676 368 694 377 c 0,4,5
 751 406 751 406 791 463 c 0,6,7
 830 519 830 519 830 566 c 0,8,9
 830 600 830 600 810 625 c 1,10,11
 705 542 705 542 598 370 c 1,12,-1
 612 370 l 2,0,1
498 20 m 0,13,14
 477 43 477 43 477 68 c 0,15,16
 477 92 477 92 493 113 c 2,17,-1
 574 226 l 2,18,19
 619 288 619 288 624 312 c 0,20,21
 624 313 624 313 625 316 c 1,22,23
 595 310 595 310 565 310 c 1,24,25
 552 292 552 292 529 257 c 0,26,27
 505 220 505 220 492 202 c 0,28,29
 429 113 429 113 327 49 c 0,30,31
 224 -16 224 -16 137 -16 c 0,32,33
 77 -16 77 -16 36 4 c 0,34,35
 -7 25 -7 25 -7 64 c 0,36,37
 -7 92 -7 92 18 127 c 0,38,39
 39 158 39 158 80 158 c 0,40,41
 118 158 118 158 118 119 c 0,42,43
 118 102 118 102 98 89 c 0,44,45
 79 76 79 76 58 76 c 0,46,47
 45 76 45 76 36 81 c 1,48,49
 33 73 33 73 33 67 c 0,50,51
 33 43 33 43 61 30 c 0,52,53
 91 16 91 16 141 16 c 0,54,55
 198 16 198 16 268 74 c 0,56,57
 339 133 339 133 399 218 c 0,58,59
 428 259 428 259 489 345 c 0,60,61
 490 350 490 350 495 358 c 0,62,-1
 495 359 l 2,63,64
 498 362 498 362 503 363 c 0,65,66
 643 548 643 548 782 650 c 1,67,68
 723 689 723 689 608 689 c 0,69,70
 500 689 500 689 387 630 c 0,71,72
 273 571 273 571 211 482 c 0,73,74
 157 404 157 404 157 354 c 0,75,76
 158 344 158 344 158 343 c 0,77,78
 164 293 164 293 226 293 c 0,79,80
 253 293 253 293 289 321 c 0,81,82
 318 344 318 344 353 393 c 0,83,84
 360 403 360 403 392 441 c 0,85,86
 423 478 423 478 442 507 c 0,87,88
 460 535 460 535 460 552 c 2,89,-1
 460 558 l 2,90,91
 460 566 460 566 468 570 c 2,92,-1
 484 576 l 1,93,-1
 485 576 l 1,94,-1
 486 576 l 2,95,96
 497 576 497 576 500 565 c 0,97,-1
 500 564 l 1,98,-1
 501 553 l 1,99,100
 501 528 501 528 485 493 c 0,101,102
 469 459 469 459 456 438 c 0,103,104
 443 418 443 418 414 377 c 0,105,106
 379 328 379 328 325 296 c 0,107,108
 269 261 269 261 222 261 c 0,109,110
 180 261 180 261 154 281 c 0,111,112
 127 301 127 301 122 336 c 0,113,114
 121 342 121 342 121 354 c 0,115,116
 121 419 121 419 178 498 c 0,117,118
 244 590 244 590 371 656 c 128,-1,119
 498 722 498 722 612 722 c 0,120,121
 744 722 744 722 819 676 c 1,122,123
 828 682 828 682 842 690 c 0,124,125
 859 700 859 700 863 703 c 0,126,127
 867 705 867 705 869 705 c 0,128,129
 880 705 880 705 883 696 c 2,130,-1
 883 695 l 1,131,-1
 885 684 l 1,132,-1
 885 683 l 2,133,134
 885 678 885 678 879 673 c 0,135,-1
 848 653 l 1,136,-1
 858 643 l 2,137,138
 892 605 892 605 892 557 c 0,139,140
 892 504 892 504 851 447 c 0,141,142
 810 391 810 391 726 350 c 2,143,-1
 726 349 l 2,144,145
 715 344 715 344 688 335 c 1,146,147
 692 327 692 327 695 316 c 0,148,149
 697 309 697 309 697 296 c 0,150,151
 697 251 697 251 662 202 c 2,152,-1
 587 97 l 2,153,154
 561 58 561 58 561 33 c 0,155,156
 561 32 561 32 561 30 c 128,-1,157
 561 28 561 28 562 26 c 0,158,159
 564 18 564 18 569 13 c 1,160,161
 579 11 579 11 597 11 c 0,162,163
 617 11 617 11 641 25 c 0,164,165
 659 37 659 37 669 46 c 0,166,167
 720 88 720 88 762 148 c 0,168,-1
 762 149 l 2,169,170
 766 153 766 153 773 153 c 2,171,-1
 784 153 l 2,172,173
 790 153 790 153 793 151 c 0,174,175
 798 146 798 146 798 140 c 0,176,177
 798 138 798 138 795 133 c 2,178,-1
 795 132 l 1,179,180
 750 71 750 71 694 28 c 0,181,182
 675 13 675 13 656 2 c 0,183,184
 620 -22 620 -22 593 -22 c 0,185,186
 574 -22 574 -22 557 -13 c 1,187,188
 517 -4 517 -4 498 20 c 0,13,14
EndSplineSet
Validated: 19457
EndChar

StartChar: S
Encoding: 83 83 17
Width: 868
Flags: W
HStem: -27 32<88.1338 243.516> 75 83<64.3452 143.618> 310 32<449.611 548> 638 32<557.062 688.483> 681 32<914.86 987.607>
VStem: 27 32<28.8334 84.5718> 297 50<401.784 513.692> 988 35<599.309 679.979>
LayerCount: 2
Fore
SplineSet
675 670 m 0,0,1
 689 670 689 670 689 657 c 0,2,3
 689 653 689 653 685 647 c 2,4,-1
 682 643 l 2,5,6
 679 638 679 638 671 638 c 0,7,8
 582 638 582 638 494 601 c 0,9,10
 407 567 407 567 371 517 c 0,11,12
 347 483 347 483 347 453 c 0,13,14
 347 421 347 421 374 396 c 0,15,16
 434 343 434 343 572 342 c 1,17,18
 639 423 639 423 676 477 c 0,19,20
 745 576 745 576 824 644 c 0,21,22
 903 713 903 713 975 713 c 0,23,24
 1023 713 1023 713 1023 661 c 0,25,26
 1023 652 1023 652 1022 646 c 0,27,28
 1016 591 1016 591 964 517 c 0,29,30
 905 433 905 433 787 372 c 0,31,32
 721 338 721 338 664 323 c 1,33,34
 616 262 616 262 573 202 c 0,35,36
 504 106 504 106 385 39.5 c 128,-1,37
 266 -27 266 -27 165 -27 c 0,38,39
 107 -27 107 -27 68 -6 c 0,40,41
 27 16 27 16 27 57 c 0,42,43
 27 88 27 88 54 127 c 0,44,45
 75 158 75 158 116 158 c 0,46,47
 154 158 154 158 154 119 c 0,48,49
 154 102 154 102 133 88 c 0,50,51
 113 75 113 75 92 75 c 0,52,53
 75 75 75 75 64 85 c 1,54,55
 59 71 59 71 59 61 c 0,56,57
 59 35 59 35 88 20 c 0,58,59
 118 5 118 5 169 5 c 0,60,61
 239 5 239 5 328 68 c 0,62,63
 417 132 417 132 479 218 c 0,64,65
 519 275 519 275 548 310 c 1,66,67
 408 314 408 314 340 373 c 0,68,69
 297 410 297 410 297 456 c 0,70,71
 297 494 297 494 325 533 c 0,72,73
 365 589 365 589 471 630 c 0,74,75
 573 670 573 670 675 670 c 0,0,1
971 681 m 0,76,77
 947 681 947 681 929 673.5 c 128,-1,78
 911 666 911 666 893 645 c 0,79,80
 875 623 875 623 861 602 c 128,-1,81
 847 581 847 581 821 538 c 0,82,83
 794 495 794 495 770 461 c 0,84,85
 746 428 746 428 698 366 c 1,86,87
 733 378 733 378 771 398 c 0,88,89
 876 452 876 452 931 533 c 0,90,91
 978 598 978 598 987 647 c 0,92,93
 988 652 988 652 988 660 c 0,94,95
 988 681 988 681 971 681 c 0,76,77
671 643 m 1025,96,-1
EndSplineSet
Validated: 19457
EndChar

StartChar: T
Encoding: 84 84 18
Width: 747
Flags: W
HStem: -27 32<156.623 334.897> 75 83<125.345 205.112> 345 32<306.329 436.98> 590 66<874.312 981.328> 667 66<545.095 747.562>
VStem: 89 32<32.4697 85.4524> 259 36<387.16 482.797> 565 60<486.853 594.276>
LayerCount: 2
Fore
SplineSet
1000 643 m 0,0,1
 1000 639 1000 639 999 636 c 2,2,-1
 970 596 l 2,3,4
 964 590 964 590 960 590 c 0,5,6
 923 590 923 590 876 602 c 1,7,-1
 878 592 l 1,8,-1
 878 591 l 2,9,10
 878 583 878 583 873 581 c 0,11,12
 802 515 802 515 755 447 c 0,13,14
 725 406 725 406 697 326 c 0,15,16
 668 245 668 245 637 202 c 0,17,18
 570 108 570 108 464 41 c 0,19,20
 357 -27 357 -27 268 -27 c 0,21,22
 193 -27 193 -27 142 -7 c 0,23,24
 89 14 89 14 89 59 c 0,25,26
 89 88 89 88 116 127 c 0,27,28
 137 158 137 158 177 158 c 0,29,30
 215 158 215 158 215 119 c 0,31,32
 215 102 215 102 195 88 c 0,33,34
 176 75 176 75 154 75 c 0,35,36
 136 75 136 75 125 86 c 1,37,38
 121 75 121 75 121 64 c 0,39,40
 121 5 121 5 272 5 c 0,41,42
 332 5 332 5 406 66 c 0,43,44
 480 129 480 129 543 218 c 0,45,46
 572 260 572 260 618 340 c 0,47,48
 665 421 665 421 694 463 c 0,49,50
 752 545 752 545 852 608 c 1,51,52
 824 616 824 616 794 629 c 0,53,54
 697 667 697 667 634 667 c 0,55,56
 545 667 545 667 467 628 c 0,57,58
 380 585 380 585 333 517 c 0,59,60
 295 462 295 462 295 424 c 0,61,62
 295 417 295 417 296 413 c 0,63,64
 303 377 303 377 355 377 c 0,65,66
 405 377 405 377 457 401 c 0,67,68
 501 423 501 423 528 463 c 0,69,70
 565 515 565 515 565 557 c 0,71,72
 565 574 565 574 558 587 c 0,73,74
 557 590 557 590 557 592 c 0,75,76
 557 598 557 598 562 604 c 1,77,-1
 563 604 l 1,78,-1
 569 608 l 1,79,-1
 570 608 l 2,80,81
 575 611 575 611 577 611 c 2,82,-1
 578 611 l 1,83,-1
 582 610 l 1,84,-1
 583 610 l 1,85,86
 625 590 625 590 625 543 c 0,87,88
 625 500 625 500 588 447 c 0,89,90
 558 405 558 405 488 374 c 0,91,92
 419 345 419 345 351 345 c 0,93,94
 276 345 276 345 261 404 c 0,95,96
 259 416 259 416 259 425 c 0,97,98
 259 473 259 473 300 533 c 0,99,100
 358 615 358 615 465 674 c 0,101,102
 570 733 570 733 662 733 c 0,103,104
 729 733 729 733 828 694 c 0,105,106
 925 656 925 656 987 656 c 0,107,108
 1000 656 1000 656 1000 643 c 0,0,1
EndSplineSet
Validated: 19457
EndChar

StartChar: U
Encoding: 85 85 19
Width: 800
Flags: W
HStem: -22 33<272 361.073 528 586.726> 296 32<95.7334 202.123> 689 33<381.168 531.779>
VStem: 49 35<338.635 435.644> 238 64<11.6182 77.9688> 362 40<516.813 607.984> 557 65<530.173 668.089> 712 36<119.156 139>
LayerCount: 2
Fore
SplineSet
961 601 m 0,0,1
 757 367 757 367 591 132 c 0,2,3
 551 76 551 76 536 34 c 0,4,5
 529 18 529 18 528 11 c 1,6,7
 567 12 567 12 620 46 c 0,8,9
 677 83 677 83 712 134 c 0,10,-1
 712 135 l 2,11,12
 716 139 716 139 723 139 c 2,13,-1
 734 139 l 2,14,15
 748 139 748 139 748 126 c 0,16,17
 748 124 748 124 745 119 c 2,18,-1
 745 118 l 1,19,20
 705 62 705 62 640 21 c 0,21,22
 608 0 608 0 578.5 -11 c 128,-1,23
 549 -22 549 -22 523 -22 c 0,24,25
 472 -22 472 -22 465 34 c 2,26,-1
 465 35 l 1,27,-1
 464 50 l 1,28,29
 464 54 464 54 465 60 c 1,30,31
 441 39 441 39 419 25 c 0,32,33
 351 -22 351 -22 301 -22 c 0,34,35
 242 -22 242 -22 238 46 c 0,36,-1
 238 51 l 2,37,38
 238 118 238 118 284 183 c 0,39,-1
 474 428 l 2,40,41
 511 476 511 476 534 527 c 128,-1,42
 557 578 557 578 557 614 c 2,43,-1
 557 620 l 2,44,45
 555 653 555 653 534 671 c 0,46,47
 512 689 512 689 471 689 c 0,48,49
 388 689 388 689 290 630 c 128,-1,50
 192 571 192 571 129 482 c 0,51,52
 84 419 84 419 84 376 c 1,53,-1
 85 368 l 2,54,55
 91 328 91 328 141 328 c 0,56,57
 180 328 180 328 224 356 c 0,58,59
 266 383 266 383 296 428 c 0,60,61
 350 505 350 505 362 597 c 0,62,-1
 362 598 l 2,63,64
 365 604 365 604 369 607 c 2,65,-1
 370 608 l 1,66,-1
 379 610 l 2,67,68
 384 614 384 614 390 614 c 2,69,-1
 391 614 l 2,70,71
 402 611 402 611 402 601 c 2,72,-1
 402 600 l 2,73,74
 402 511 402 511 394 481 c 128,-1,75
 386 451 386 451 357 412 c 0,76,77
 321 364 321 364 258 330 c 128,-1,78
 195 296 195 296 137 296 c 0,79,80
 101 296 101 296 79 313 c 0,81,82
 56 330 56 330 50 360 c 0,83,84
 49 365 49 365 49 377 c 0,85,86
 49 430 49 430 96 498 c 0,87,88
 163 591 163 591 272 656 c 0,89,90
 382 722 382 722 475 722 c 0,91,92
 532 722 532 722 570 697 c 128,-1,93
 608 672 608 672 619 627 c 0,94,95
 622 611 622 611 622 594 c 0,96,97
 622 511 622 511 551 412 c 2,98,-1
 378 167 l 2,99,100
 326 94 326 94 310 45 c 0,101,102
 302 25 302 25 302 15 c 0,103,104
 302 11 302 11 305 11 c 0,105,106
 343 11 343 11 399 50 c 0,107,108
 457 92 457 92 498 148 c 0,109,110
 664 383 664 383 868 617 c 0,111,-1
 868 618 l 2,112,113
 872 622 872 622 879 622 c 2,114,-1
 951 622 l 2,115,116
 957 622 957 622 960 618 c 0,117,118
 964 614 964 614 964 609 c 128,-1,119
 964 604 964 604 961 601 c 0,0,1
EndSplineSet
Validated: 19457
EndChar

StartChar: V
Encoding: 86 86 20
Width: 622
Flags: W
HStem: -22 21G<189.5 206.5> 429 32<275.246 325.391> 575 32<189.738 260.805>
VStem: 50 36<463 482.844> 179 35<-18.8743 0.9992> 216 59<461.224 509.203> 261 64<529.161 574.824>
LayerCount: 2
Fore
SplineSet
164 545 m 0,0,1
 121 516 121 516 86 468 c 0,2,-1
 86 467 l 2,3,4
 82 463 82 463 75 463 c 2,5,-1
 64 463 l 2,6,7
 50 463 50 463 50 476 c 0,8,9
 50 478 50 478 53 483 c 2,10,-1
 53 484 l 1,11,12
 90 536 90 536 145 570 c 0,13,14
 202 607 202 607 249 607 c 0,15,16
 281 607 281 607 302 595 c 0,17,18
 325 582 325 582 325 560 c 0,19,20
 325 539 325 539 302 515 c 0,21,22
 275 487 275 487 275 470 c 0,23,24
 275 461 275 461 285 461 c 0,25,26
 306 461 306 461 347 491 c 0,27,28
 379 516 379 516 406 549 c 1,29,30
 452 636 452 636 531 718 c 0,31,32
 535 722 535 722 541 722 c 2,33,-1
 552 722 l 2,34,35
 557 722 557 722 562 718 c 0,36,37
 565 715 565 715 565 708 c 0,38,39
 565 702 565 702 561 698 c 0,40,41
 532 667 532 667 504 601 c 0,42,43
 477 533 477 533 463 481.5 c 128,-1,44
 449 430 449 430 431 347 c 0,45,46
 412 264 412 264 363 178 c 1,47,48
 487 295 487 295 532 358 c 0,49,50
 547 379 547 379 580 428.5 c 128,-1,51
 613 478 613 478 633.5 506.5 c 128,-1,52
 654 535 654 535 687 575 c 128,-1,53
 720 615 720 615 757 647 c 0,54,55
 793 678 793 678 839 704 c 0,56,57
 840 705 840 705 844 705 c 0,58,59
 854 705 854 705 857 696 c 2,60,-1
 857 695 l 1,61,-1
 862 675 l 1,62,-1
 862 674 l 2,63,64
 862 668 862 668 856 663 c 0,65,66
 823 643 823 643 791.5 617.5 c 128,-1,67
 760 592 760 592 739 571.5 c 128,-1,68
 718 551 718 551 689.5 515 c 128,-1,69
 661 479 661 479 647.5 461 c 128,-1,70
 634 443 634 443 604 399.5 c 128,-1,71
 574 356 574 356 564 342 c 0,72,73
 514 271 514 271 384 150 c 0,74,75
 255 30 255 30 214 -17 c 0,76,-1
 214 -18 l 2,77,78
 210 -22 210 -22 203 -22 c 2,79,-1
 192 -22 l 2,80,81
 187 -22 187 -22 183 -19 c 0,82,83
 179 -15 179 -15 179 -8 c 0,84,85
 179 -3 179 -3 182 1 c 0,86,87
 225 45 225 45 258 113 c 0,88,89
 290 181 290 181 303 226 c 0,90,91
 315 272 315 272 333 353 c 0,92,93
 345 412 345 412 368 467 c 1,94,95
 315 429 315 429 281 429 c 0,96,97
 251 429 251 429 234 442 c 0,98,99
 216 456 216 456 216 478 c 0,100,101
 216 504 216 504 244 534 c 0,102,103
 261 551 261 551 261 564 c 0,104,105
 261 575 261 575 245 575 c 0,106,107
 212 575 212 575 164 545 c 0,0,1
EndSplineSet
Validated: 19457
EndChar

StartChar: W
Encoding: 87 87 21
Width: 805
Flags: W
HStem: -22 21G<104 121 321.5 342> 450 32<230.252 321.874> 603 32<152.462 212.714>
VStem: 165 65<482.164 523.118> 213 62<541.877 602.686>
LayerCount: 2
Fore
SplineSet
319 1 m 0,0,1
 366 69 366 69 423 197 c 128,-1,2
 480 325 480 325 498 356 c 0,3,4
 520 396 520 396 595 508 c 1,5,6
 530 434 530 434 451 342 c 0,7,8
 250 108 250 108 128 -18 c 0,9,10
 124 -22 124 -22 118 -22 c 2,11,-1
 107 -22 l 2,12,13
 101 -22 101 -22 97 -18 c 128,-1,14
 93 -14 93 -14 93 -8 c 128,-1,15
 93 -2 93 -2 98 1 c 0,16,17
 162 70 162 70 275 355 c 0,18,19
 297 412 297 412 329 466 c 1,20,21
 284 450 284 450 246 450 c 0,22,23
 214 450 214 450 190 461 c 0,24,25
 165 473 165 473 165 494 c 0,26,27
 165 514 165 514 185 535 c 0,28,29
 213 564 213 564 213 584 c 0,30,31
 213 603 213 603 188 603 c 0,32,33
 172 603 172 603 152 587 c 0,34,35
 131 570 131 570 116.5 552 c 128,-1,36
 102 534 102 534 78 501 c 0,37,38
 75 494 75 494 67 494 c 2,39,-1
 55 494 l 2,40,41
 42 494 42 494 42 508 c 0,42,43
 42 511 42 511 47 517 c 0,44,45
 129 635 129 635 192 635 c 0,46,47
 229 635 229 635 251 619 c 0,48,49
 275 603 275 603 275 577 c 0,50,51
 275 547 275 547 244 515 c 0,52,53
 230 501 230 501 230 493 c 0,54,55
 230 482 230 482 250 482 c 0,56,57
 304 482 304 482 360 518 c 1,58,59
 429 626 429 626 520 718 c 0,60,61
 524 722 524 722 530 722 c 2,62,-1
 541 722 l 2,63,64
 545 722 545 722 551 717 c 0,65,66
 555 714 555 714 555 708 c 128,-1,67
 555 702 555 702 550 699 c 0,68,69
 521 668 521 668 485 600 c 0,70,71
 449 530 449 530 428.5 481.5 c 128,-1,72
 408 433 408 433 373 345 c 0,73,74
 356 303 356 303 332 258 c 1,75,76
 368 300 368 300 433 375 c 0,77,78
 534 492 534 492 602.5 568 c 128,-1,79
 671 644 671 644 742 718 c 0,80,81
 746 722 746 722 752 722 c 2,82,-1
 763 722 l 2,83,84
 776 722 776 722 776 708 c 2,85,-1
 775 702 l 1,86,87
 725 630 725 630 667 502 c 0,88,89
 609 373 609 373 593 344 c 0,90,91
 567 294 567 294 434 103 c 1,92,93
 462 125 462 125 511 163 c 0,94,95
 592 226 592 226 639 269 c 0,96,97
 685 312 685 312 718 358 c 0,98,99
 757 414 757 414 793.5 472.5 c 128,-1,100
 830 531 830 531 846 558 c 0,101,102
 863 586 863 586 887 616 c 0,103,104
 912 646 912 646 942 665 c 128,-1,105
 972 684 972 684 1018 703 c 0,106,107
 1022 705 1022 705 1025 705 c 0,108,109
 1033 705 1033 705 1037 697 c 2,110,-1
 1037 696 l 1,111,-1
 1037 695 l 1,112,-1
 1035 669 l 1,113,-1
 1035 668 l 1,114,-1
 1035 667 l 2,115,116
 1032 661 1032 661 1028 658 c 2,117,-1
 1027 658 l 1,118,-1
 1027 657 l 2,119,120
 987 640 987 640 955.5 618 c 128,-1,121
 924 596 924 596 899 565 c 0,122,123
 874 533 874 533 855 504 c 128,-1,124
 836 475 836 475 806 426.5 c 128,-1,125
 776 378 776 378 751 342 c 0,126,127
 710 283 710 283 637 222 c 0,128,129
 565 161 565 161 481 96 c 0,130,131
 397 32 397 32 350 -16 c 0,132,133
 345 -22 345 -22 339 -22 c 2,134,-1
 328 -22 l 2,135,136
 315 -22 315 -22 315 -8 c 0,137,138
 315 -5 315 -5 319 1 c 0,0,1
EndSplineSet
Validated: 19457
EndChar

StartChar: X
Encoding: 88 88 22
Width: 944
Flags: W
HStem: -22 33<160.458 285.559 590.812 698.326> 76 82<140.313 213.5> 331 32<496.047 568 697 769.906> 345 32<313.307 402.449> 689 33<507.089 646.736 991.66 1038>
VStem: 98 39<28.3711 80.6136> 268 36<385.422 490.969> 530 50<524.145 628.843> 530 35<35.6953 168.782> 684 72<497.788 653.465>
LayerCount: 2
Fore
SplineSet
473 463 m 0,0,1
 530 544 530 544 530 611 c 2,2,-1
 530 617 l 2,3,4
 530 624 530 624 536 629 c 0,5,-1
 537 629 l 1,6,-1
 545 634 l 2,7,8
 548 635 548 635 550 635 c 2,9,-1
 559 632 l 1,10,11
 580 606 580 606 580 570 c 0,12,13
 580 512 580 512 533 447 c 0,14,15
 504 407 504 407 451 375 c 0,16,17
 400 345 400 345 351 345 c 0,18,19
 314 345 314 345 292 364.5 c 128,-1,20
 270 384 270 384 268 417 c 0,21,-1
 268 425 l 2,22,23
 268 486 268 486 325 568 c 0,24,25
 371 631 371 631 445 676 c 0,26,27
 522 722 522 722 585 722 c 0,28,29
 658 722 658 722 702 688 c 0,30,31
 747 654 747 654 756 595 c 0,32,-1
 756 594 l 2,33,34
 758 574 758 574 758 564 c 0,35,36
 758 525 758 525 745 480 c 1,37,38
 804 550 804 550 860 603 c 0,39,40
 896 639 896 639 918 659 c 0,41,42
 941 679 941 679 977 700 c 0,43,44
 1014 722 1014 722 1042 722 c 0,45,46
 1137 722 1137 722 1137 687 c 0,47,48
 1137 673 1137 673 1125 657 c 0,49,50
 1104 626 1104 626 1064 626 c 0,51,52
 1026 626 1026 626 1026 665 c 0,53,54
 1026 678 1026 678 1038 689 c 1,55,56
 1018 689 1018 689 990 672 c 0,57,58
 961 654 961 654 940 635 c 128,-1,59
 919 616 919 616 883 580 c 0,60,61
 789 488 789 488 697 363 c 1,62,-1
 761 363 l 2,63,64
 767 363 767 363 770 361 c 0,65,66
 775 356 775 356 775 350 c 0,67,68
 775 348 775 348 769 338 c 0,69,70
 766 331 766 331 757 331 c 2,71,-1
 673 331 l 1,72,-1
 656 307 l 2,73,74
 565 178 565 178 565 93 c 2,75,-1
 565 90 l 2,76,77
 566 50 566 50 587 30.5 c 128,-1,78
 608 11 608 11 650 11 c 0,79,80
 685 11 685 11 744 59 c 0,81,82
 800 104 800 104 856 182 c 0,83,84
 860 188 860 188 868 188 c 2,85,-1
 879 188 l 2,86,87
 892 188 892 188 892 175 c 0,88,89
 892 171 892 171 889 167 c 0,90,91
 832 88 832 88 765 35 c 0,92,93
 694 -22 694 -22 647 -22 c 0,94,95
 592 -22 592 -22 562 8 c 128,-1,96
 532 38 532 38 530 86 c 2,97,-1
 530 96 l 2,98,99
 530 131 530 131 542 170 c 1,100,101
 493 120 493 120 437 76 c 0,102,103
 312 -22 312 -22 231 -22 c 0,104,105
 174 -22 174 -22 137 -1 c 0,106,107
 98 20 98 20 98 59 c 0,108,109
 98 89 98 89 124 127 c 0,110,111
 146 158 146 158 185 158 c 0,112,113
 223 158 223 158 223 119 c 0,114,115
 223 102 223 102 203 89 c 0,116,117
 184 76 184 76 163 76 c 0,118,119
 150 76 150 76 140 81 c 1,120,121
 137 70 137 70 137 62 c 0,122,123
 137 38 137 38 162 25 c 0,124,125
 189 11 189 11 235 11 c 0,126,127
 285 11 285 11 380 100 c 0,128,129
 455 170 455 170 562 323 c 0,130,131
 565 326 565 326 568 331 c 1,132,-1
 508 331 l 2,133,134
 506 331 506 331 501 334 c 2,135,-1
 500 334 l 2,136,137
 495 338 495 338 495 344 c 0,138,139
 495 348 495 348 496 351 c 2,140,-1
 499 355 l 2,141,142
 504 363 504 363 512 363 c 2,143,-1
 589 363 l 1,144,145
 683 505 683 505 684 590 c 2,146,-1
 684 595 l 2,147,148
 684 639 684 639 658 664 c 128,-1,149
 632 689 632 689 581 689 c 0,150,151
 528 689 528 689 464 651 c 0,152,153
 400 612 400 612 358 552 c 0,154,155
 304 477 304 477 304 426 c 2,156,-1
 304 421 l 2,157,158
 306 377 306 377 355 377 c 0,159,160
 382 377 382 377 415 401 c 0,161,162
 440 418 440 418 473 463 c 0,0,1
EndSplineSet
Validated: 19457
EndChar

StartChar: Y
Encoding: 89 89 23
Width: 710
Flags: W
HStem: -22 33<157.404 322.369> 76 82<134.313 206.5> 184 32<464.562 510.646> 275 32<104.873 202.175> 677 28<943.988 969.462> 689 33<387.168 544.799>
VStem: 52 36<322.69 433.304> 91 41<30.189 80.6008> 357 60<484.762 621.117> 385 78<216.959 305.101> 569 81<554.5 663.327>
LayerCount: 2
Fore
SplineSet
227 341 m 0,0,1
 258 367 258 367 302 428 c 0,2,3
 362 514 362 514 362 580 c 0,4,5
 362 596 362 596 357 614 c 0,6,-1
 357 615 l 1,7,-1
 357 618 l 2,8,9
 357 624 357 624 363 629 c 0,10,-1
 369 633 l 2,11,12
 374 635 374 635 376 635 c 0,13,14
 379 635 379 635 384 632 c 2,15,-1
 385 632 l 1,16,17
 417 602 417 602 417 554 c 0,18,19
 417 489 417 489 363 412 c 0,20,21
 320 354 320 354 264 316 c 0,22,23
 202 275 202 275 156 275 c 0,24,25
 69 275 69 275 54 345 c 0,26,27
 52 359 52 359 52 368 c 0,28,29
 52 426 52 426 102 498 c 0,30,31
 169 591 169 591 278 656 c 0,32,33
 388 722 388 722 481 722 c 0,34,35
 600 722 600 722 637 650 c 0,36,37
 650 627 650 627 650 599 c 0,38,39
 650 542 650 542 606 482 c 2,40,-1
 507 342 l 2,41,42
 466 282 466 282 463 245 c 0,43,44
 463 240 463 240 463 239 c 0,45,46
 463 216 463 216 484 216 c 0,47,48
 510 216 510 216 547 237 c 0,49,50
 552 241 552 241 561 253 c 0,51,52
 598 305 598 305 661 410 c 128,-1,53
 724 515 724 515 762 568 c 0,54,55
 774 585 774 585 790.5 600.5 c 128,-1,56
 807 616 807 616 830 632 c 128,-1,57
 853 648 853 648 867 656.5 c 128,-1,58
 881 665 881 665 911 682 c 0,59,60
 939 698 939 698 951 705 c 0,61,62
 953 705 953 705 955 705 c 0,63,64
 966 705 966 705 968 697 c 2,65,-1
 970 689 l 1,66,-1
 970 688 l 2,67,68
 970 683 970 683 965 677 c 2,69,-1
 964 677 l 1,70,71
 870 621 870 621 822 552 c 0,72,73
 784 499 784 499 739 396 c 0,74,75
 693 292 693 292 655 237 c 0,76,77
 580 132 580 132 464 55 c 0,78,79
 347 -22 347 -22 251 -22 c 0,80,81
 184 -22 184 -22 138 -2 c 0,82,83
 91 19 91 19 91 61 c 0,84,85
 91 89 91 89 117 127 c 0,86,87
 139 158 139 158 178 158 c 0,88,89
 216 158 216 158 216 119 c 0,90,91
 216 102 216 102 196 89 c 0,92,93
 177 76 177 76 156 76 c 0,94,95
 144 76 144 76 134 81 c 1,96,97
 132 73 132 73 132 65 c 0,98,99
 132 11 132 11 255 11 c 0,100,101
 313 11 313 11 383 64 c 0,102,103
 448 113 448 113 511 188 c 1,104,105
 495 184 495 184 480 184 c 0,106,107
 411 184 411 184 392 238 c 0,108,109
 385 260 385 260 385 278 c 0,110,111
 385 317 385 317 413 358 c 2,112,-1
 512 498 l 2,113,114
 569 577 569 577 569 625 c 0,115,116
 569 634 569 634 568 638 c 0,117,118
 557 689 557 689 477 689 c 0,119,120
 394 689 394 689 296 630 c 128,-1,121
 198 571 198 571 135 482 c 0,122,123
 88 416 88 416 88 367 c 0,124,125
 88 357 88 357 89 353 c 0,126,127
 96 307 96 307 160 307 c 0,128,129
 186 307 186 307 227 341 c 0,0,1
EndSplineSet
Validated: 19457
EndChar

StartChar: Z
Encoding: 90 90 24
Width: 821
Flags: W
HStem: -22 66<434.211 608.673> -13 32<118.578 268.73> 85 32<151.48 307.982> 331 32<513.126 569 696 811.953> 345 32<263.329 359.602> 681 32<897.139 998.843> 689 33<493.063 613.502>
VStem: 76 41<21.9467 60.291> 216 36<387.16 483.289> 467 57<487.451 588.86> 565 94<532.266 600.732> 614 80<624.719 687.723> 1003 36<606.355 676.399>
LayerCount: 2
Fore
SplineSet
1035 674 m 0,0,1
 1039 664 1039 664 1039 650 c 0,2,3
 1039 619 1039 619 1016 587 c 0,4,5
 986 545 986 545 895 514 c 0,6,7
 832 494 832 494 764 487 c 1,8,9
 717 397 717 397 696 363 c 1,10,-1
 801 363 l 2,11,12
 815 363 815 363 815 350 c 0,13,14
 815 348 815 348 812 343 c 2,15,-1
 812 342 l 1,16,-1
 809 338 l 2,17,18
 806 331 806 331 797 331 c 2,19,-1
 675 331 l 1,20,21
 558 171 558 171 417 72 c 1,22,23
 490 44 490 44 548 44 c 0,24,25
 593 44 593 44 646 71 c 0,26,27
 698 98 698 98 727 138 c 0,28,29
 730 145 730 145 738 145 c 2,30,-1
 750 145 l 2,31,32
 763 145 763 145 763 132 c 0,33,34
 763 128 763 128 760 125 c 0,35,36
 718 65 718 65 649 21 c 0,37,38
 579 -22 579 -22 520 -22 c 0,39,40
 505 -22 505 -22 491 -20 c 128,-1,41
 477 -18 477 -18 463 -14 c 0,42,43
 450 -10 450 -10 441 -7 c 128,-1,44
 432 -4 432 -4 417 4 c 0,45,46
 402 13 402 13 398 15.5 c 128,-1,47
 394 18 394 18 378 29 c 0,48,49
 367 36 367 36 363 39 c 1,50,51
 270 -13 270 -13 194 -13 c 2,52,-1
 185 -13 l 2,53,54
 76 -13 76 -13 76 26 c 0,55,56
 76 40 76 40 90 60 c 0,57,58
 129 117 129 117 239 117 c 0,59,60
 295 117 295 117 362 94 c 1,61,62
 451 167 451 167 569 331 c 1,63,-1
 520 331 l 2,64,65
 507 331 507 331 507 344 c 2,66,-1
 507 347 l 1,67,-1
 507 348 l 1,68,-1
 508 349 l 1,69,-1
 509 351 l 1,70,-1
 509 352 l 1,71,-1
 513 358 l 1,72,-1
 513 359 l 2,73,74
 517 363 517 363 524 363 c 2,75,-1
 592 363 l 1,76,77
 601 376 601 376 631 420 c 0,78,79
 659 462 659 462 678 487 c 1,80,81
 627 493 627 493 598 517 c 0,82,83
 565 542 565 542 565 567 c 0,84,85
 565 582 565 582 578 603 c 0,86,87
 582 609 582 609 591 623 c 128,-1,88
 600 637 600 637 604 643 c 128,-1,89
 608 649 608 649 611 658 c 0,90,91
 614 666 614 666 614 671 c 0,92,93
 611 689 611 689 580 689 c 0,94,95
 507 689 507 689 426 640 c 0,96,97
 344 592 344 592 290 517 c 0,98,99
 252 462 252 462 252 424 c 0,100,101
 252 417 252 417 253 413 c 0,102,103
 260 377 260 377 312 377 c 0,104,105
 340 377 340 377 372 401 c 0,106,107
 396 418 396 418 430 463 c 0,108,109
 467 517 467 517 467 557 c 0,110,111
 467 565 467 565 464 577 c 0,112,113
 462 580 462 580 462 583 c 0,114,115
 462 591 462 591 469 594 c 2,116,-1
 476 598 l 1,117,-1
 476 599 l 1,118,-1
 477 599 l 1,119,-1
 481 600 l 1,120,-1
 483 600 l 1,121,-1
 484 599 l 2,122,123
 485 599 485 599 486 599 c 2,124,-1
 487 599 l 1,125,-1
 488 598 l 2,126,127
 524 580 524 580 524 537 c 128,-1,128
 524 494 524 494 490 447 c 0,129,130
 461 407 461 407 408 375 c 0,131,132
 357 345 357 345 308 345 c 0,133,134
 233 345 233 345 218 404 c 0,135,136
 216 416 216 416 216 425 c 0,137,138
 216 474 216 474 258 533 c 0,139,140
 313 611 313 611 407 666 c 0,141,142
 502 722 502 722 584 722 c 0,143,144
 656 722 656 722 683 683 c 0,145,146
 694 665 694 665 694 646 c 0,147,148
 694 618 694 618 672 587 c 0,149,150
 659 567 659 567 659 552 c 0,151,152
 659 543 659 543 662 538 c 0,153,154
 671 522 671 522 701 518 c 1,155,156
 770 609 770 609 832 660 c 0,157,158
 896 713 896 713 966 713 c 0,159,160
 1020 713 1020 713 1035 674 c 0,0,1
881 543 m 0,161,162
 959 569 959 569 983 603 c 0,163,164
 1003 630 1003 630 1003 652 c 0,165,166
 1003 656 1003 656 1001 661 c 0,167,168
 994 681 994 681 962 681 c 0,169,170
 903 681 903 681 862 639 c 0,171,172
 822 598 822 598 782 521 c 1,173,174
 832 528 832 528 881 543 c 0,161,162
235 85 m 0,175,176
 151 85 151 85 122 45 c 0,177,178
 117 37 117 37 117 32 c 0,179,180
 117 24 117 24 133 22 c 0,181,182
 153 19 153 19 198 19 c 0,183,184
 254 19 254 19 322 63 c 1,185,186
 279 85 279 85 235 85 c 0,175,176
EndSplineSet
Validated: 19457
EndChar

StartChar: tie
Encoding: 127 8256 25
Width: 278
Flags: W
HStem: 485 40<569.221 747.795>
VStem: 748 27<366.126 383> 768 33<387.126 461.928>
LayerCount: 2
Fore
SplineSet
790 479 m 0,0,1
 801 464 801 464 801 440 c 0,2,3
 801 405 801 405 775 369 c 0,4,-1
 775 368 l 2,5,6
 770 363 770 363 764 363 c 2,7,-1
 761 363 l 2,8,9
 759 363 759 363 754 366 c 2,10,-1
 753 366 l 2,11,12
 748 370 748 370 748 377 c 2,13,-1
 749 383 l 1,14,15
 768 411 768 411 768 429 c 0,16,17
 768 443 768 443 759 454 c 0,18,19
 736 485 736 485 669 485 c 0,20,21
 597 485 597 485 524 450 c 0,22,23
 448 415 448 415 416 369 c 0,24,25
 408 363 408 363 405 363 c 2,26,-1
 403 363 l 2,27,28
 399 363 399 363 395 366 c 0,29,30
 389 370 389 370 389 377 c 0,31,32
 389 380 389 380 394 386 c 0,33,34
 434 444 434 444 517 483 c 0,35,36
 601 525 601 525 679 525 c 0,37,38
 761 525 761 525 790 479 c 0,0,1
EndSplineSet
Validated: 19457
EndChar

StartChar: A
Encoding: 65 65 26
Width: 803
Flags: W
HStem: -13 32<70.9191 192.035> -5 21G<483 562> 61 83<66.3137 142.112> 428 32<337.599 470.63>
VStem: 30 34<27.2324 68.4634> 184 58<167.387 316.205> 577 37<213.277 326.343>
LayerCount: 2
Fore
SplineSet
999 720 m 0,0,1
 1005 718 1005 718 1005 708 c 2,2,-1
 1004 703 l 1,3,-1
 617 79 l 1,4,5
 681 96 681 96 735 151 c 0,6,7
 738 156 738 156 745 156 c 2,8,-1
 750 155 l 2,9,10
 758 151 758 151 758 142 c 2,11,-1
 758 140 l 1,12,-1
 758 139 l 1,13,-1
 758 138 l 2,14,15
 756 131 756 131 753 129 c 0,16,17
 682 55 682 55 594 41 c 1,18,-1
 569 2 l 2,19,20
 566 -5 566 -5 558 -5 c 2,21,-1
 486 -5 l 2,22,23
 480 -5 480 -5 478 -2 c 0,24,25
 472 2 472 2 472 8 c 0,26,27
 472 12 472 12 475 15 c 0,28,29
 479 20 479 20 485 29.5 c 128,-1,30
 491 39 491 39 494 43 c 1,31,32
 389 51 389 51 318 79 c 1,33,34
 282 48 282 48 248.5 27.5 c 128,-1,35
 215 7 215 7 183 -3 c 128,-1,36
 151 -13 151 -13 120 -13 c 0,37,38
 79 -13 79 -13 55 4 c 0,39,40
 30 21 30 21 30 52 c 0,41,42
 30 80 30 80 53 113 c 0,43,44
 74 144 74 144 114 144 c 0,45,46
 152 144 152 144 152 105 c 0,47,48
 152 88 152 88 132 74 c 0,49,50
 113 61 113 61 91 61 c 0,51,52
 76 61 76 61 66 69 c 1,53,54
 64 62 64 62 64 55 c 0,55,56
 64 19 64 19 124 19 c 0,57,58
 195 19 195 19 284 95 c 1,59,60
 184 146 184 146 184 238 c 0,61,62
 184 310 184 310 247 399 c 0,63,64
 268 428 268 428 306 444 c 128,-1,65
 344 460 344 460 380 460 c 0,66,67
 500 460 500 460 560 393 c 1,68,69
 637 463 637 463 779 571 c 0,70,71
 861 633 861 633 960 703 c 1,72,-1
 970 716 l 1,73,-1
 970 717 l 2,74,75
 975 722 975 722 981 722 c 2,76,-1
 992 722 l 2,77,78
 994 722 994 722 999 720 c 0,0,1
614 213 m 1,79,-1
 900 617 l 1,80,81
 850 582 850 582 806 549 c 0,82,83
 670 448 670 448 580 366 c 1,84,85
 614 310 614 310 614 227 c 0,86,87
 614 220 614 220 614 213 c 1,79,-1
296 371 m 0,88,89
 242 294 242 294 242 234 c 0,90,91
 242 166 242 166 315 123 c 1,92,93
 343 152 343 152 366 183 c 0,94,95
 431 276 431 276 533 368 c 1,96,97
 482 428 482 428 376 428 c 0,98,99
 360 428 360 428 336 411 c 0,100,101
 313 394 313 394 296 371 c 0,88,89
398 167 m 0,102,103
 377 137 377 137 348 108 c 1,104,105
 415 80 415 80 516 74 c 1,106,-1
 571 152 l 1,107,108
 577 190 577 190 577 224 c 0,109,110
 577 294 577 294 552 341 c 1,111,112
 457 250 457 250 398 167 c 0,102,103
EndSplineSet
Validated: 19457
EndChar

StartChar: lparenBig
Encoding: 40 40 27
Width: 339
VWidth: 1282
Flags: W
VStem: 102 47<60.1848 440.157>
LayerCount: 2
Fore
SplineSet
296 753 m 0,0,1
 298 755 298 755 302 755 c 2,2,-1
 315 755 l 2,3,4
 325 755 325 755 325 744 c 0,5,6
 325 739 325 739 323 736 c 0,7,8
 154 570 154 570 154 250 c 0,9,10
 154 -72 154 -72 322 -235 c 0,11,12
 325 -238 325 -238 325 -244 c 0,13,14
 325 -255 325 -255 315 -255 c 2,15,-1
 302 -255 l 2,16,17
 298 -255 298 -255 296 -253 c 0,18,19
 193 -165 193 -165 145 -32.5 c 128,-1,20
 97 100 97 100 97 250 c 128,-1,21
 97 400 97 400 145 532.5 c 128,-1,22
 193 665 193 665 296 753 c 0,0,1
EndSplineSet
Validated: 19457
EndChar

StartChar: rparenBig
Encoding: 41 41 28
Width: 339
VWidth: 1282
Flags: W
VStem: 191 47<60.0645 439.963>
LayerCount: 2
Fore
SplineSet
44 -253 m 0,0,1
 42 -255 42 -255 38 -255 c 2,2,-1
 25 -255 l 2,3,4
 15 -255 15 -255 15 -244 c 0,5,6
 15 -239 15 -239 17 -236 c 0,7,8
 186 -70 186 -70 186 250 c 0,9,10
 186 573 186 573 18 736 c 0,11,12
 15 739 15 739 15 744 c 0,13,14
 15 755 15 755 25 755 c 2,15,-1
 38 755 l 2,16,17
 42 755 42 755 44 753 c 0,18,19
 147 665 147 665 195 532.5 c 128,-1,20
 243 400 243 400 243 250 c 128,-1,21
 243 100 243 100 195 -32.5 c 128,-1,22
 147 -165 147 -165 44 -253 c 0,0,1
EndSplineSet
Validated: 19457
EndChar

StartChar: lbracketBig
Encoding: 91 91 29
Width: 268
VWidth: 1282
Flags: W
HStem: -250 29<157 259> 721 29<157 259>
VStem: 128 131<-250 -221 721 750> 128 29<-221 721>
LayerCount: 2
Fore
SplineSet
123 -255 m 1,0,-1
 123 755 l 1,1,-1
 264 755 l 1,2,-1
 264 716 l 1,3,-1
 162 716 l 1,4,-1
 162 -216 l 1,5,-1
 264 -216 l 1,6,-1
 264 -255 l 1,7,-1
 123 -255 l 1,0,-1
EndSplineSet
Validated: 8408065
EndChar

StartChar: backslashBig
Encoding: 92 92 30
Width: 461
VWidth: 1282
Flags: W
VStem: 31 27<742 749.95> 404 27<-249.95 -242>
LayerCount: 2
Fore
SplineSet
400 -244 m 1,0,-1
 27 729 l 2,1,2
 26 730 26 730 26 734 c 2,3,-1
 26 738 l 1,4,-1
 26 739 l 2,5,6
 28 753 28 753 43 755 c 2,7,8
 44 755 l 1,9,-1
 47 755 l 2,10,11
 55 755 55 755 62 745 c 2,12,-1
 62 744 l 1,13,-1
 435 -229 l 2,14,15
 436 -230 436 -230 436 -234 c 2,16,-1
 436 -238 l 1,17,-1
 436 -239 l 2,18,19
 434 -253 434 -253 420 -255 c 2,20,-1
 419 -255 l 1,21,-1
 415 -255 l 2,22,23
 407 -255 407 -255 400 -245 c 2,24,-1
 400 -244 l 1,0,-1
EndSplineSet
Validated: 19457
EndChar

StartChar: rbracketBig
Encoding: 93 93 31
Width: 268
VWidth: 1282
Flags: W
HStem: -250 29<9 111> 721 29<9 111>
VStem: 9 131<-250 -221 721 750> 111 29<-221 721>
LayerCount: 2
Fore
SplineSet
4 -255 m 1,0,-1
 4 -216 l 1,1,-1
 106 -216 l 1,2,-1
 106 716 l 1,3,-1
 4 716 l 1,4,-1
 4 755 l 1,5,-1
 145 755 l 1,6,-1
 145 -255 l 1,7,-1
 4 -255 l 1,0,-1
EndSplineSet
Validated: 8408065
EndChar

StartChar: lbraceBig
Encoding: 123 123 32
Width: 379
VWidth: 1282
Flags: W
VStem: 166 47<-176.999 183.321 317.305 677.254>
LayerCount: 2
Fore
SplineSet
161 -123 m 2,0,-1
 161 121 l 2,1,2
 161 180 161 180 96 219 c 0,3,4
 65 238 65 238 62 241 c 2,5,-1
 62 242 l 1,6,-1
 62 258 l 1,7,-1
 62 259 l 2,8,9
 64 264 64 264 80.5 274 c 128,-1,10
 97 284 97 284 114.5 294.5 c 128,-1,11
 132 305 132 305 146.5 327.5 c 128,-1,12
 161 350 161 350 161 379 c 2,13,-1
 161 623 l 2,14,15
 161 649 161 649 173 671 c 128,-1,16
 185 693 185 693 205 709 c 128,-1,17
 225 725 225 725 246.5 736 c 128,-1,18
 268 747 268 747 291 755 c 2,19,-1
 292 755 l 1,20,-1
 307 755 l 2,21,22
 318 755 318 755 318 745 c 2,23,-1
 318 730 l 1,24,-1
 318 729 l 2,25,26
 316 724 316 724 299.5 715.5 c 128,-1,27
 283 707 283 707 265 697.5 c 128,-1,28
 247 688 247 688 232.5 668 c 128,-1,29
 218 648 218 648 218 621 c 2,30,-1
 218 376 l 2,31,32
 218 298 218 298 114 250 c 1,33,34
 218 202 218 202 218 123 c 2,35,-1
 218 -121 l 2,36,37
 218 -147 218 -147 232.5 -167.5 c 128,-1,38
 247 -188 247 -188 264.5 -197.5 c 128,-1,39
 282 -207 282 -207 298.5 -215.5 c 128,-1,40
 315 -224 315 -224 318 -229 c 2,41,-1
 318 -230 l 1,42,-1
 318 -245 l 2,43,44
 318 -255 318 -255 307 -255 c 2,45,-1
 292 -255 l 1,46,-1
 291 -255 l 2,47,48
 267 -247 267 -247 246 -236 c 128,-1,49
 225 -225 225 -225 205 -209 c 128,-1,50
 185 -193 185 -193 173 -171 c 128,-1,51
 161 -149 161 -149 161 -123 c 2,0,-1
EndSplineSet
Validated: 19457
EndChar

StartChar: rbraceBig
Encoding: 125 125 33
Width: 379
VWidth: 1282
Flags: W
VStem: 166 47<-177.254 183.135 317.119 677.44>
LayerCount: 2
Fore
SplineSet
62 -245 m 2,0,-1
 62 -230 l 1,1,-1
 62 -229 l 2,2,3
 64 -224 64 -224 80.5 -215.5 c 128,-1,4
 97 -207 97 -207 114.5 -197.5 c 128,-1,5
 132 -188 132 -188 146.5 -168 c 128,-1,6
 161 -148 161 -148 161 -121 c 2,7,-1
 161 123 l 2,8,9
 161 202 161 202 265 250 c 1,10,11
 161 298 161 298 161 376 c 2,12,-1
 161 621 l 2,13,14
 161 648 161 648 146.5 668 c 128,-1,15
 132 688 132 688 114.5 697.5 c 128,-1,16
 97 707 97 707 81 715.5 c 128,-1,17
 65 724 65 724 62 729 c 2,18,-1
 62 730 l 1,19,-1
 62 745 l 2,20,21
 62 755 62 755 72 755 c 2,22,-1
 88 755 l 1,23,-1
 89 755 l 2,24,25
 113 747 113 747 133.5 736 c 128,-1,26
 154 725 154 725 174 709 c 128,-1,27
 194 693 194 693 206 671 c 128,-1,28
 218 649 218 649 218 623 c 2,29,-1
 218 379 l 2,30,31
 218 350 218 350 232.5 327.5 c 128,-1,32
 247 305 247 305 265 294 c 128,-1,33
 283 283 283 283 299.5 273.5 c 128,-1,34
 316 264 316 264 318 259 c 2,35,-1
 318 258 l 1,36,-1
 318 242 l 1,37,-1
 318 241 l 2,38,39
 316 236 316 236 305 229.5 c 128,-1,40
 294 223 294 223 279.5 215 c 128,-1,41
 265 207 265 207 251 195.5 c 128,-1,42
 237 184 237 184 227.5 164.5 c 128,-1,43
 218 145 218 145 218 121 c 2,44,-1
 218 -123 l 2,45,46
 218 -149 218 -149 206 -171 c 128,-1,47
 194 -193 194 -193 174 -209 c 128,-1,48
 154 -225 154 -225 133 -236 c 128,-1,49
 112 -247 112 -247 89 -255 c 2,50,-1
 88 -255 l 1,51,-1
 72 -255 l 2,52,53
 62 -255 62 -255 62 -245 c 2,0,-1
EndSplineSet
Validated: 19457
EndChar

StartChar: slashBig
Encoding: 47 47 34
Width: 461
VWidth: 1282
Flags: W
VStem: 31 27<-249.95 -242> 404 27<742 749.95>
LayerCount: 2
Fore
SplineSet
26 -238 m 1,0,-1
 26 -234 l 1,1,2
 27 -229 l 1,3,4
 368 663 368 663 399 744 c 2,5,-1
 400 744 l 1,6,7
 400 745 l 2,8,9
 407 755 407 755 415 755 c 2,10,-1
 419 755 l 1,11,12
 420 755 l 2,13,14
 434 753 434 753 436 739 c 2,15,-1
 436 738 l 1,16,-1
 436 734 l 1,17,18
 435 729 l 1,19,20
 94 -163 94 -163 63 -244 c 2,21,-1
 62 -244 l 1,22,-1
 62 -245 l 2,23,24
 55 -255 55 -255 47 -255 c 2,25,-1
 44 -255 l 1,26,-1
 43 -255 l 2,27,28
 28 -253 28 -253 26 -239 c 2,29,-1
 26 -238 l 1,0,-1
EndSplineSet
Validated: 19457
EndChar

StartChar: lceilBig
Encoding: 128 8968 35
Width: 299
VWidth: 1282
Flags: W
HStem: 721 29<157 291>
VStem: 128 29<-250 721>
LayerCount: 2
Fore
SplineSet
123 -255 m 1,0,-1
 123 755 l 1,1,-1
 296 755 l 1,2,-1
 296 716 l 1,3,-1
 162 716 l 1,4,-1
 162 -255 l 1,5,-1
 123 -255 l 1,0,-1
EndSplineSet
Validated: 19457
EndChar

StartChar: rceilBig
Encoding: 129 8969 36
Width: 299
VWidth: 1282
Flags: W
HStem: 721 29<9 143>
VStem: 143 29<-250 721>
LayerCount: 2
Fore
SplineSet
138 -255 m 1,0,-1
 138 716 l 1,1,-1
 4 716 l 1,2,-1
 4 755 l 1,3,-1
 177 755 l 1,4,-1
 177 -255 l 1,5,-1
 138 -255 l 1,0,-1
EndSplineSet
Validated: 19457
EndChar

StartChar: lfloorBig
Encoding: 130 8970 37
Width: 299
VWidth: 1282
Flags: W
HStem: -250 29<157 291>
VStem: 128 29<-221 750>
LayerCount: 2
Fore
SplineSet
123 -255 m 1,0,-1
 123 755 l 1,1,-1
 162 755 l 1,2,-1
 162 -216 l 1,3,-1
 296 -216 l 1,4,-1
 296 -255 l 1,5,-1
 123 -255 l 1,0,-1
EndSplineSet
Validated: 19457
EndChar

StartChar: rfloorBig
Encoding: 131 8971 38
Width: 299
VWidth: 1282
Flags: W
HStem: -250 29<9 143>
VStem: 143 29<-221 750>
LayerCount: 2
Fore
SplineSet
4 -255 m 1,0,-1
 4 -216 l 1,1,-1
 138 -216 l 1,2,-1
 138 755 l 1,3,-1
 177 755 l 1,4,-1
 177 -255 l 1,5,-1
 4 -255 l 1,0,-1
EndSplineSet
Validated: 19457
EndChar

StartChar: langleBig
Encoding: 132 12296 39
Width: 347
VWidth: 1282
Flags: W
VStem: 272 27<-250.98 -242 742 749.983>
LayerCount: 2
Fore
SplineSet
303 -228 m 2,0,1
 304 -231 304 -231 304 -236 c 0,2,3
 304 -244 304 -244 298.5 -250 c 128,-1,4
 293 -256 293 -256 285 -256 c 0,5,6
 275 -256 275 -256 268 -245 c 2,7,-1
 268 -244 l 1,8,-1
 60 242 l 2,9,10
 58 247 58 247 58 250 c 128,-1,11
 58 253 58 253 60 258 c 2,12,-1
 268 744 l 1,13,14
 268 745 l 2,15,16
 274 755 274 755 285 755 c 0,17,18
 293 755 293 755 298.5 749.5 c 128,-1,19
 304 744 304 744 304 736 c 0,20,21
 304 730 304 730 303 727 c 2,22,-1
 98 250 l 1,23,-1
 303 -228 l 2,0,1
EndSplineSet
Validated: 19457
EndChar

StartChar: rangleBig
Encoding: 133 12297 40
Width: 347
VWidth: 1282
Flags: W
VStem: 49 28<-250.995 -242 742 749.996>
LayerCount: 2
Fore
SplineSet
289 242 m 2,0,-1
 81 -244 l 1,1,-1
 81 -245 l 2,2,3
 74 -256 74 -256 63 -256 c 0,4,5
 55 -256 55 -256 49.5 -250 c 128,-1,6
 44 -244 44 -244 44 -236 c 0,7,8
 44 -231 44 -231 45 -228 c 2,9,-1
 250 250 l 1,10,-1
 45 727 l 2,11,12
 44 730 44 730 44 736 c 0,13,14
 44 744 44 744 49.5 749.5 c 128,-1,15
 55 755 55 755 63 755 c 0,16,17
 75 755 75 755 81 745 c 2,18,-1
 81 744 l 1,19,-1
 289 258 l 2,20,21
 290 255 290 255 290 250 c 128,-1,22
 290 245 290 245 289 242 c 2,0,-1
EndSplineSet
Validated: 19457
EndChar
